<?xml version="1.0" encoding="utf-8"?>
<!-- Generator: Adobe Illustrator 19.0.0, SVG Export Plug-In . SVG Version: 6.00 Build 0)  -->
<svg version="1.1" id="Layer_1" xmlns="http://www.w3.org/2000/svg" xmlns:xlink="http://www.w3.org/1999/xlink" x="0px" y="0px"
	 viewBox="229 -83 266 266" style="enable-background:new 229 -83 266 266;" xml:space="preserve">
<style type="text/css">
	.st0{fill:#332C3D;}
	.st1{fill:#FFFFFF;}
	.st2{fill:#00C252;}
</style>
<title>easypaisa</title>
<g id="Page-1">
	<g id="easypaisa">
		<path id="Rectangle" class="st0" d="M241.5-83h241.1c6.9,0,12.5,5.6,12.5,12.5v241.1c0,6.9-5.6,12.5-12.5,12.5H241.5
			c-6.9,0-12.5-5.6-12.5-12.5V-70.5C229-77.4,234.6-83,241.5-83z"/>
		<path id="Combined-Shape" class="st1" d="M365.4-62.2c50.1,0,90.7,33.6,90.7,75.1s-40.6,66.7-90.7,66.7
			c-49.4-1-83.8-17.1-103.3-48.3C272.6-27.9,307.1-59,365.4-62.2z M362-15.5c-28.8,2.9-46.4,16.6-52.9,41.1
			c8.8,7.7,26.4,12,52.9,12.9c26.6-0.4,42.7-8.2,43-26.2C403.3-7.6,384-16.3,362-15.5z"/>
		<path id="Combined-Shape_1_" class="st2" d="M258.3,51c14.8,42.6,55.8,66.3,97.9,66.3c34.9,0,58.1-15.1,70.2-37.9l39.1,24.5
			c-13.6,33.4-54.1,57.6-101.8,57.6c-59,0-109.5-39.7-105.4-108.8C258.3,52.1,258.3,51.6,258.3,51z"/>
	</g>
</g>
</svg>
