<?xml version="1.0" encoding="iso-8859-1"?>
<!-- Generator: Adobe Illustrator 19.1.1, SVG Export Plug-In . SVG Version: 6.00 Build 0)  -->
<svg version="1.1" id="Lager_1" xmlns="http://www.w3.org/2000/svg" xmlns:xlink="http://www.w3.org/1999/xlink" x="0px" y="0px"
	 viewBox="0 0 80.076 80.074" style="enable-background:new 0 0 80.076 80.074;" xml:space="preserve">
<rect style="fill:none;" width="80.076" height="80.074"/>
<path id="r_x5F_leg_x5F_shadow_x5F_fill_1_" style="fill:#FFFFFF;" d="M26.485,8.975c0,1.417,1.5,21.639,1.917,24.722
	s1.061,10.855,1.144,13.772s-0.061,11.895-0.061,11.895s1,5.02,1,5.833c0.001,1.021-8.957,2.795-10,2.917
	c-1.838,0.215-8.428-2.294-8.385-4.051c0.032-1.308-0.138-3.63-0.438-8.088c-0.031-0.461,0.761-0.844,0.75-0.938
	c-0.975-8.626-3.152-19.711-3.428-20.923c-0.417-1.833-1-4.583-1.167-8.083c-0.167-3.5-1.917-11.389-2.75-17.056H26.485z"/>
<path id="r_x5F_leg_x5F_shadow_3_" style="opacity:0.3;" d="M26.485,8.975c0,1.417,1.5,21.639,1.917,24.722
	s1.061,10.855,1.144,13.772s-0.061,11.895-0.061,11.895s1,5.02,1,5.833c0.001,1.021-8.957,2.795-10,2.917
	c-1.838,0.215-8.428-2.294-8.385-4.051c0.032-1.308-0.138-3.63-0.438-8.088c-0.031-0.461,0.761-0.844,0.75-0.938
	c-0.975-8.626-3.152-19.711-3.428-20.923c-0.417-1.833-1-4.583-1.167-8.083c-0.167-3.5-1.917-11.389-2.75-17.056H26.485z"/>
<path id="r_x5F_leg_x5F_fill_2_" style="fill:#FFFFFF;" d="M30.485,8.975c0,0.778,1.415,19.01,1.917,22.722
	c0.417,3.083,1.061,10.855,1.144,13.772s-0.061,11.895-0.061,11.895s1,5.02,1,5.833c0.001,1.021-8.957,2.795-10,2.917
	c-1.838,0.215-8.229-1.688-7.917-3.417c0.768-4.249-3.167-28.75-3.583-30.583c-0.417-1.833-1-4.583-1.167-8.083
	c-0.167-3.5-1.917-9.389-2.75-15.056H30.485z"/>
<path style="fill:none;stroke:#12100B;stroke-width:1.5;stroke-linecap:square;stroke-miterlimit:10;" d="M9.069,9.614
	c0.833,5.667,2.583,10.917,2.75,14.417c0.167,3.5,0.75,6.25,1.167,8.083c0.417,1.833,4.351,26.334,3.583,30.583
	c-0.313,1.729,6.079,3.631,7.917,3.417c1.043-0.122,10.001-1.896,10-2.917c0-0.814-1-5.833-1-5.833s0.144-8.978,0.061-11.895
	s-0.727-10.688-1.144-13.772c-0.417-3.083-1.917-20.667-1.917-22.083"/>
<path style="opacity:0.3;fill:none;stroke:#12100B;stroke-width:1.5;stroke-linecap:square;stroke-miterlimit:10;" d="M18.235,9.614
	c0.333,2.417,1.667,11.083,2.25,14.667c0.583,3.583,2.917,23.5,2.917,25.5s0.917,14.25,0.583,15.75"/>
<path id="l_x5F_leg_x5F_shadow_x5F_fill_1_" style="fill:#FFFFFF;" d="M60.652,8.975c0.438,2.292,1.427,28.031,1.721,31.128
	c0.294,3.097,0.629,10.888,0.596,13.806s-0.099,11.715-0.099,11.715s0.532,5.125,0.5,5.938c-0.04,1.02-9.228,2.536-10.275,2.616
	c-1.845,0.141-8.771-2.047-8.39-3.762c0.321-1.446-0.212-4.52-0.397-9.129c-0.021-0.521,0.455-0.403,0.449-0.52
	c-0.486-8.771-1.579-19.821-1.802-21.019c-0.344-1.848-0.817-4.619-0.845-8.123c-0.028-3.504-2.114-12.065-2.175-18.157
	c-0.013-1.297-0.323-4.493-0.323-4.493H60.652z"/>
<path id="l_x5F_leg_x5F_shadow_3_" style="opacity:0.3;" d="M60.652,8.975c0.438,2.292,1.427,28.031,1.721,31.128
	c0.294,3.097,0.629,10.888,0.596,13.806s-0.099,11.715-0.099,11.715s0.532,5.125,0.5,5.938c-0.04,1.02-9.228,2.536-10.275,2.616
	c-1.845,0.141-8.771-2.047-8.39-3.762c0.321-1.446-0.212-4.52-0.397-9.129c-0.021-0.521,0.455-0.403,0.449-0.52
	c-0.486-8.771-1.579-19.821-1.802-21.019c-0.344-1.848-0.817-4.619-0.845-8.123c-0.028-3.504-2.114-12.065-2.175-18.157
	c-0.013-1.297-0.323-4.493-0.323-4.493H60.652z"/>
<path id="l_x5F_leg_x5F_fill_2_" style="fill:#FFFFFF;" d="M64.663,8.975c0.438,2.292,1.416,26.031,1.71,29.128
	c0.294,3.097,0.629,10.888,0.596,13.806c-0.033,2.918-0.099,11.715-0.099,11.715s0.532,5.125,0.5,5.938
	c-0.04,1.02-9.228,2.536-10.275,2.616c-1.845,0.141-8.7-1.369-8.319-3.085c0.936-4.216-1.478-29.497-1.822-31.345
	c-0.344-1.848-0.817-4.619-0.845-8.123c-0.028-3.504-2.114-12.065-2.175-18.157c-0.013-1.297-0.323-2.493-0.323-2.493H64.663z"/>
<path style="fill:none;stroke:#12100B;stroke-width:1.5;stroke-linecap:square;stroke-miterlimit:10;" d="M64.652,9.614
	c0.438,2.292,1.427,25.392,1.721,28.489c0.294,3.097,0.629,10.888,0.596,13.806c-0.033,2.918-0.099,11.715-0.099,11.715
	s0.532,5.125,0.5,5.938c-0.04,1.02-9.228,2.536-10.275,2.616c-1.845,0.141-8.7-1.369-8.319-3.085
	c0.936-4.216-1.478-29.497-1.822-31.345c-0.344-1.848-0.817-4.619-0.845-8.123c-0.028-3.504-2.114-12.065-2.175-18.157
	c-0.013-1.297-0.323-1.854-0.323-1.854"/>
<path style="opacity:0.3;fill:none;stroke:#12100B;stroke-width:1.5;stroke-linecap:square;stroke-miterlimit:10;" d="M53.152,9.614
	c0.237,2.428,2.934,17.438,3.375,21.042c0.441,3.604,2.45,23.284,2.371,25.283c-0.079,1.998,0.35,14.275-0.043,15.761"/>
<g id="turnup_1_">
	<path style="fill:#FFFFFF;stroke:#000000;stroke-width:1.5;stroke-miterlimit:10;" d="M47.917,62.77
		c-0.066-0.75,10.038,2.688,11.121,2.455c1.121-0.242,7.597-1.557,8.969-2.313c0.34-0.188,0.536,7.481,0.536,7.481
		s-8.513,3.049-9.754,2.843c-1.704-0.283-10.368-2.716-10.698-2.904C47.761,70.145,48.01,63.828,47.917,62.77z"/>
	<path style="opacity:0.3;fill:none;stroke:#12100B;stroke-width:1.5;stroke-linecap:square;stroke-miterlimit:10;" d="
		M58.997,66.13c0,1-0.04,6.302,0.026,6.845"/>
</g>
<g id="turnup">
	<path style="fill:#FFFFFF;stroke:#000000;stroke-width:1.5;stroke-miterlimit:10;" d="M15.373,56.881
		c-0.063-0.75,8.023,3.22,9.066,3.095s8.748-1.87,10.046-2.626c0.322-0.188,0.862,6.973,0.862,6.973s-9.706,3.777-11.289,3.34
		c-1.583-0.438-8.208-3.031-8.52-3.219S15.461,57.94,15.373,56.881z"/>
	<path style="opacity:0.3;fill:none;stroke:#12100B;stroke-width:1.5;stroke-linecap:square;stroke-miterlimit:10;" d="
		M24.413,60.787c0,1-0.063,6.008,0,6.551"/>
</g>
<g>
</g>
<g>
</g>
<g>
</g>
<g>
</g>
<g>
</g>
<g>
</g>
<g>
</g>
<g>
</g>
<g>
</g>
<g>
</g>
<g>
</g>
<g>
</g>
<g>
</g>
<g>
</g>
<g>
</g>
</svg>
