<svg version="1" xmlns="http://www.w3.org/2000/svg" width="933.333" height="933.333" viewBox="0 0 700.000000 700.000000"><path d="M628.5 48.1c-14.2 4.1-25.2 10.9-45.4 28.2-11 9.5-25.5 24.8-35.3 37.4-4.9 6.4-8.6 10.3-9.8 10.3-5.8 0-54.2-18.6-73.5-28.3-44.8-22.4-76.9-33.4-114.5-39.3-14.2-2.2-54-2.6-66.5-.6-33.8 5.5-63.3 16.5-84.6 31.8-35 25.1-54.9 64.4-52.5 103.7 1.4 23.4 7.8 41.5 20.6 58.5 14.6 19.5 35.7 33.3 60.8 39.9 13.9 3.6 34.8 4.3 48.4 1.5 18-3.7 32.5-11.3 45.8-23.9 10.2-9.6 17.4-19.6 23.5-32.6 7.7-16.2 8.3-23.3 2.3-28.9-2.5-2.4-3.9-2.8-8.5-2.8-4.9 0-5.9.4-8.7 3.2-1.9 1.9-4 5.6-5.1 8.8-2.4 7.6-8.9 19.5-13.8 25.5-9.5 11.6-23.3 20.4-37.7 24.2-8 2.1-27.9 2.3-36.5.4-42.4-9.3-69.3-46.2-64.5-88.4 2.4-21.4 11.1-39.5 26.5-55.2 10.9-11 19.4-17.1 34.3-24.7 26.7-13.5 58.9-19.4 92.5-16.9 41 3.1 73.4 12.4 119.2 34.6 27.3 13.1 63.4 27.9 75.8 31 1.5.4 2.7 1.1 2.7 1.7 0 .5-2.6 5.5-5.9 11.1-3.2 5.6-7.5 13.6-9.6 17.7l-3.7 7.5-12.1-.4c-14.3-.4-23.7.9-37 5.1-18.2 5.7-34.1 15.4-47.7 28.9-13.1 13.2-22 28.2-27.7 46.6-2.3 7.8-2.6 10.4-2.7 23.8 0 12.3.4 16.4 2.2 22.8 4.1 14.8 14.4 32.4 26.7 45.6l4.3 4.6-16.5 30.5c-36.5 67.8-44.7 82.1-58.8 102-22.1 31.3-50.9 61.4-78.3 81.7l-8.7 6.4-3.8-4.3c-10.8-12.1-16.5-21.8-21.1-35.9-13.5-41.4-5.2-80.9 22.4-106.1 16.4-15 35.7-22.8 56.7-22.8 11.7 0 15.6-1.3 19.1-6.4 2.7-4 2.8-9.1.2-13.3-3.2-5.3-6.7-6.4-19.8-6.5-18.1 0-31.8 3.4-49.2 12.3-31.8 16.3-54.3 46.7-60.6 81.8-2 11.3-1.9 32.3.1 44.2 4.6 26.7 13.8 47.3 29.2 65.5l4.3 5.1-8.8 4c-49.4 22.7-95 23-137.9.9-16.7-8.6-28.1-17.3-45-34.3C22 553 18.5 550 15.6 549.5c-7-1.4-12.8 2-14.7 8.6-2.1 6.7-.2 10.2 11.8 22.9C53.6 624 99 643.7 153 641.7c28.4-1 50.5-6.8 79.1-20.8l13.9-6.8 12.4 8.4C290.3 644 324.3 653.9 366 654c43.6 0 83.5-11.5 117-33.8 14.3-9.5 32.8-27.5 41.7-40.7 32.4-48.1 33-104.7 1.4-149.5-10.2-14.6-26-28.9-64.6-58.5-9.9-7.5-18.4-14.1-18.9-14.6-.5-.4 8.4-18.2 20.2-40.1 11.5-21.6 28.3-53.2 37.2-70.3 8.9-17 16.3-31.2 16.5-31.3.8-.9 14.5 7.2 20.4 11.9 13 10.6 19 22.1 19.9 38 .6 11.7-1.7 20.6-7.6 29.3-6.7 10-19.8 18.7-30.1 20.2-12 1.6-17 4.5-19.2 11.1-.9 2.8-.7 4 1.2 7.9 1.7 3.6 3.2 5.1 6.6 6.6 3.8 1.7 5.2 1.8 11.6.9 25.1-3.6 44.9-17.5 55.7-39.4 14.6-29.7 10.4-61.4-11.5-85.5-6-6.5-20.2-17-29.3-21.6l-5.3-2.7 4.7-8.7c2.5-4.8 7.4-13.1 10.7-18.5 5.1-8.4 6.3-9.8 8.1-9.3 15.3 3.8 49.3 5.7 64.9 3.6 27.5-3.7 47.8-13.1 64.7-30 10.9-10.8 15.2-18.4 17.2-29.8 3.9-22.9-12-45-37.2-51.7-8.1-2.2-24.8-1.8-33.5.6zm29.3 25.5c6.5 2.1 12 6.6 14.3 11.8 3.1 6.8 2 12.6-3.9 20.4-14.9 19.9-46.8 30.4-82.5 27.2-20.8-1.8-20-1-11.9-10.5C595 97.7 623.7 75.1 637 72.7c5.9-1 16.1-.6 20.8.9zM487.1 216.7c-14.6 29-63.4 120.3-64.3 120.3-1.2 0-10-12.5-13.3-19-13.6-27-7.8-56.8 15.7-80.8 16.3-16.7 40.4-27.7 61.6-28.1l4.2-.1-3.9 7.7zm-23.5 190.1c9.4 7.2 20.8 16.5 25.2 20.7 18.6 17.5 29.7 37.3 33.7 60.4 1.9 10.8 1.9 17 0 29.6-7 46.5-42.6 84.6-95 101.8-22.1 7.2-38.5 9.8-61.9 9.8-23.9 0-45-4.1-66.9-13-10.3-4.3-28.2-14.3-28.2-15.8 0-.6 3.4-3.7 7.5-6.8 28.6-22 55.7-50.9 79.6-85 13.9-19.8 23.7-36.6 50.4-86.5 8.4-15.7 16.8-31.3 18.7-34.7l3.5-6.3 8.1 6.3c4.5 3.5 15.9 12.3 25.3 19.5z"/></svg>