<?xml version="1.0" encoding="utf-8"?>
<!-- Generator: Adobe Illustrator 16.0.4, SVG Export Plug-In . SVG Version: 6.00 Build 0)  -->
<!DOCTYPE svg PUBLIC "-//W3C//DTD SVG 1.1//EN" "http://www.w3.org/Graphics/SVG/1.1/DTD/svg11.dtd">
<svg version="1.1" id="Layer_1" xmlns="http://www.w3.org/2000/svg" xmlns:xlink="http://www.w3.org/1999/xlink" x="0px" y="0px"
	 width="595.396px" height="105.667px" viewBox="0 336.112 595.396 105.667" enable-background="new 0 336.112 595.396 105.667"
	 xml:space="preserve">
<polygon points="13.879,376.476 0,376.476 0,369.42 35.391,369.42 35.391,376.476 21.627,376.476 21.627,413.022 13.879,413.022 "/>
<path d="M58.406,369.073h7.055l19.199,43.949h-8.097l-4.395-10.524H51.467l-4.511,10.524h-7.864L58.406,369.073z M69.394,395.79
	l-7.518-17.464l-7.518,17.464H69.394z"/>
<rect x="96.919" y="369.42" width="7.634" height="43.602"/>
<polygon points="122.248,369.42 129.881,369.42 129.881,406.083 152.897,406.083 152.897,413.022 122.248,413.022 "/>
<path d="M157.061,391.395L157.061,391.395c0-12.375,9.483-22.668,22.899-22.668s22.784,10.178,22.784,22.437v0.116
	c0,12.26-9.483,22.553-22.899,22.553S157.061,403.654,157.061,391.395 M194.649,391.395L194.649,391.395
	c0-8.559-6.13-15.614-14.804-15.614c-8.675,0-14.688,6.939-14.688,15.382v0.116c0,8.443,6.13,15.498,14.804,15.498
	C188.635,406.777,194.649,399.838,194.649,391.395"/>
<path d="M215.119,369.42h19.431c5.436,0,9.831,1.619,12.606,4.395c2.312,2.313,3.585,5.667,3.585,9.368v0.116
	c0,7.17-4.279,11.45-10.409,13.185l11.797,16.539h-9.021l-10.756-15.15h-0.116h-9.483v15.267h-7.634V369.42z M233.972,391.048
	c5.436,0,9.021-2.891,9.021-7.286v-0.116c0-4.626-3.354-7.286-9.021-7.286h-11.219v14.688H233.972z"/>
<path d="M352.634,406.661l4.626-5.436c4.164,3.586,8.328,5.667,13.764,5.667c4.741,0,7.749-2.197,7.749-5.436v-0.115
	c0-3.123-1.735-4.858-9.831-6.708c-9.252-2.197-14.572-4.973-14.572-13.069v-0.116c0-7.518,6.245-12.606,14.919-12.606
	c6.361,0,11.45,1.966,15.845,5.436l-4.163,5.783c-3.933-2.891-7.864-4.51-11.797-4.51c-4.511,0-7.055,2.313-7.055,5.205v0.115
	c0,3.354,1.966,4.858,10.408,6.824c9.253,2.198,13.995,5.552,13.995,12.838v0.115c0,8.212-6.478,13.069-15.614,13.069
	C364.199,413.717,357.954,411.403,352.634,406.661"/>
<polygon points="408.38,376.476 394.617,376.476 394.617,369.42 430.008,369.42 430.008,376.476 416.129,376.476 416.129,413.022 
	408.38,413.022 "/>
<path d="M436.831,391.395L436.831,391.395c0-12.375,9.484-22.668,22.9-22.668s22.784,10.178,22.784,22.437v0.116
	c0,12.26-9.484,22.553-22.9,22.553S436.831,403.654,436.831,391.395 M474.42,391.395L474.42,391.395
	c0-8.559-6.13-15.614-14.805-15.614c-8.674,0-14.688,6.939-14.688,15.382v0.116c0,8.443,6.129,15.498,14.804,15.498
	C468.406,406.777,474.42,399.838,474.42,391.395"/>
<path d="M494.891,369.42h19.43c5.437,0,9.831,1.619,12.606,4.395c2.313,2.313,3.586,5.667,3.586,9.368v0.116
	c0,7.17-4.279,11.45-10.409,13.185l11.797,16.539h-9.021l-10.756-15.15h-0.115h-9.484v15.267h-7.633V369.42L494.891,369.42z
	 M513.742,391.048c5.437,0,9.021-2.891,9.021-7.286v-0.116c0-4.626-3.354-7.286-9.021-7.286h-11.219v14.688H513.742z"/>
<polygon points="544.97,369.42 577.354,369.42 577.354,376.244 552.603,376.244 552.603,387.578 574.462,387.578 574.462,394.518 
	552.603,394.518 552.603,406.199 577.584,406.199 577.584,413.022 544.97,413.022 "/>
<path fill="#C09C62" d="M354.948,341.2c-2.776-3.701-9.021-5.089-14.804-1.041c-4.049,2.891-7.518,6.361-10.757,10.872
	c-4.395-1.272-9.367-3.123-14.688-5.898c-22.438-11.334-37.357-3.701-41.405-1.157c-6.708,4.279-10.408,10.987-10.062,18.158
	c0.463,10.409,8.559,16.192,15.96,17.117c8.675,1.157,15.961-3.701,18.621-12.259c0.347-1.157-0.231-2.429-1.388-2.776
	c-1.157-0.347-2.429,0.231-2.776,1.388c-2.429,7.864-8.789,9.946-13.878,9.252c-5.668-0.694-11.797-5.089-12.145-12.954
	c-0.231-5.667,2.66-10.872,8.096-14.341c11.104-7.171,26.485-4.048,37.126,1.388c5.32,2.66,9.946,4.511,14.109,5.783
	c-1.156,1.851-2.197,3.817-3.238,5.898c0,0.116-0.115,0.231-0.115,0.347c-6.015-0.925-12.028,1.388-16.076,5.32
	c-5.32,5.205-8.096,13.878-2.082,21.743c0.694,0.925,1.504,1.851,2.313,2.66c-2.775,5.089-5.32,9.831-7.286,13.531
	c-5.436,10.409-12.491,18.505-20.009,23.594c-1.966-1.966-3.47-4.163-4.163-6.477c-2.082-6.245-1.389-12.028,2.081-16.423
	c3.008-3.816,7.865-6.014,12.376-5.552c1.156,0.116,2.312-0.81,2.429-1.966c0.115-1.157-0.81-2.313-1.967-2.429
	c-6.014-0.579-12.259,2.082-16.308,7.171c-4.395,5.551-5.436,12.838-2.775,20.586c0.926,2.66,2.429,5.089,4.511,7.402
	c-3.585,1.851-7.171,3.007-10.872,3.47c-8.674,0.925-16.77-2.66-23.246-10.409c-0.81-0.925-2.198-1.041-3.123-0.231
	s-1.041,2.197-0.231,3.123c6.708,7.98,14.92,12.028,23.825,12.028c1.041,0,2.197-0.116,3.238-0.116
	c4.626-0.462,9.253-2.081,13.763-4.626c1.851,1.388,3.817,2.66,5.898,3.701c4.511,2.082,9.368,3.123,14.342,3.123
	c4.511,0,9.137-0.81,13.531-2.545c9.137-3.47,15.498-10.756,17.002-19.314c1.388-7.518-1.388-14.92-7.518-20.239
	c-1.735-1.504-3.586-2.892-5.32-4.28c-1.735-1.272-3.354-2.544-4.974-3.816c4.396-8.212,9.137-17.001,12.606-23.825l0,0
	c1.272,0.578,2.545,1.272,3.701,2.313c3.354,2.776,3.586,6.592,2.775,9.137c-0.81,2.544-3.238,5.32-7.286,5.552
	c-1.156,0.116-2.197,1.156-2.081,2.313c0.115,1.157,1.156,2.082,2.312,2.082c5.32-0.231,9.6-3.585,11.219-8.558
	c1.735-5.089,0.115-10.409-4.048-13.879c-1.504-1.157-3.007-2.197-4.511-2.776c1.156-2.313,2.313-4.395,3.586-6.245
	c10.64,2.313,17.116-0.116,20.934-3.123C357.26,349.065,357.26,344.208,354.948,341.2 M315.393,397.524
	c1.735,1.389,3.47,2.545,5.089,4.048c4.974,4.396,7.171,10.178,6.015,16.192c-1.272,7.055-6.593,12.953-14.226,15.96
	c-8.327,3.238-17.002,3.008-24.52-0.462c-1.388-0.694-2.66-1.388-3.816-2.198c7.749-5.551,14.804-13.878,20.355-24.403
	c1.851-3.47,4.163-7.864,6.708-12.49C312.386,395.212,313.89,396.368,315.393,397.524 M309.842,386.884
	c-0.348-0.347-0.694-0.81-1.041-1.272c-4.626-6.13-2.082-12.375,1.619-15.96c2.775-2.66,6.708-4.511,10.871-4.395
	C318.053,371.618,313.774,379.482,309.842,386.884 M349.512,349.528c-3.586,2.775-8.79,3.701-15.498,2.544
	c2.66-3.354,5.436-6.13,8.674-8.328c3.933-2.775,7.518-1.619,8.79,0.116C352.634,345.479,351.941,347.562,349.512,349.528"/>
<path d="M581.98,371.04c0-1.157,0.347-2.197,0.925-3.123s1.389-1.735,2.429-2.313c1.041-0.579,2.198-0.81,3.354-0.81
	s2.312,0.231,3.354,0.81c1.041,0.578,1.851,1.388,2.429,2.313c0.579,0.925,0.926,2.082,0.926,3.123c0,1.157-0.231,2.198-0.81,3.123
	c-0.578,0.925-1.388,1.735-2.429,2.313c-1.041,0.578-2.197,0.925-3.354,0.925c-1.271,0-2.312-0.347-3.354-0.925
	c-1.041-0.579-1.851-1.388-2.429-2.313C582.211,373.237,581.98,372.196,581.98,371.04 M583.021,371.04
	c0,0.925,0.231,1.851,0.693,2.66c0.463,0.81,1.157,1.503,2.082,1.966c0.925,0.462,1.851,0.694,2.775,0.694
	c1.041,0,1.967-0.231,2.776-0.694c0.81-0.463,1.503-1.157,2.082-1.966c0.462-0.81,0.693-1.735,0.693-2.66s-0.231-1.851-0.81-2.66
	s-1.156-1.503-2.082-1.966c-0.925-0.463-1.851-0.694-2.775-0.694c-1.041,0-1.966,0.231-2.775,0.694
	c-0.81,0.462-1.504,1.156-2.082,1.966C583.252,369.189,583.021,370.114,583.021,371.04 M591.348,369.536
	c0,0.925-0.463,1.619-1.388,1.966l2.081,3.354h-1.851l-1.734-2.892h-0.81v2.892h-1.735v-7.633h2.313
	c1.041,0,1.735,0.231,2.313,0.578C591.116,368.264,591.348,368.842,591.348,369.536 M587.762,370.808h0.579
	c0.462,0,0.81-0.116,1.04-0.347c0.231-0.231,0.348-0.463,0.348-0.81c0-0.347-0.116-0.694-0.348-0.81
	c-0.23-0.116-0.578-0.231-1.04-0.231h-0.579V370.808L587.762,370.808z"/>
<rect x="96.573" y="467.149" fill="none" width="405.951" height="53.202"/>
</svg>
