<?xml version="1.0" encoding="iso-8859-1"?>
<!-- Generator: Adobe Illustrator 16.0.4, SVG Export Plug-In . SVG Version: 6.00 Build 0)  -->
<!DOCTYPE svg PUBLIC "-//W3C//DTD SVG 1.1//EN" "http://www.w3.org/Graphics/SVG/1.1/DTD/svg11.dtd">
<svg version="1.1" id="Layer_1" xmlns="http://www.w3.org/2000/svg" xmlns:xlink="http://www.w3.org/1999/xlink" x="0px" y="0px"
	 width="80px" height="80px" viewBox="0 0 80 80" style="enable-background:new 0 0 80 80;" xml:space="preserve">
<path style="fill:#FFFFFF;" d="M42.755,3.126c-6.38,5.381-12.836,8.105-13.682,8.364c-8.252,2.53-10.098,5.142-14.805,6.484
	c-7.703,2.199-8.771,4.086-8.771,4.086v55.023h70.67V3.126H42.755z"/>
<path style="fill:none;stroke:#000000;stroke-width:0.624;stroke-miterlimit:10;" d="M37.188,3.333
	c-7.438,6.981-7.525,8.157-16.817,17.845c-3.164,3.299,4.435,5.543,7.275,4.541c0,0-9.19,5.349-7.458,9.264
	c6.833,15.441,13.752,27.176,21.316,42.102"/>
<path style="fill:none;stroke:#000000;stroke-width:0.624;stroke-miterlimit:10;" d="M41.697,15.458
	c-2.508,2.099-11.556,9.133-14.051,10.261"/>
<path style="fill:none;stroke:#000000;stroke-width:0.624;stroke-miterlimit:10;" d="M43.375,3.333
	c-4.913,10.234,1.023,20.947,4.416,30.772c5.36,15.525,12.608,27.988,18.771,43.186"/>
<path style="fill:none;stroke:#000000;stroke-width:0.624;stroke-miterlimit:10;" d="M5.497,22.518
	c4.542-1.306,2.865-2.797,7.035-3.527c3.232-0.566,9.085-5.989,16.541-7.044"/>
<path style="fill:none;stroke:#000000;stroke-width:0.624;stroke-miterlimit:10;" d="M41.772,8.661
	c13.193-3.397,24.554-3.717,34.395-3.317"/>
<path style="opacity:0.2;fill:#12100B;" d="M43.375,3.333c-0.836,2.605-1.533,3.302-1.628,5.235
	c-0.372,7.619-0.963,7.911,7.919,30.742c9.601,24.682,16.896,37.98,16.896,37.98h9.604V3.333H43.375z"/>
<path style="opacity:0.1;fill:#12100B;" d="M31.07,57.174C26.917,49.167,21.614,38.605,20,33.812
	c-0.667-1.979,6.542-7.521,6.542-7.521s-6.667-0.844-6.928-3.083c-0.188-1.612,7.202-8.517,9.233-11.261
	c0.26-0.351-2.265,0.424-2.265,0.424c-4.208,4.17-9.46,7.522-8.68,10.941c0.347,1.521,0.8,2.368,3.93,3.261
	c0,0-4.556,3.999-4.548,6.958c0.016,5.485,8.111,20.344,20.298,43.553c1.51,0,2.647,0,3.921,0
	C38.204,70.845,34.013,62.847,31.07,57.174z"/>
<rect style="fill:none;" width="80" height="80"/>
<g>
	<g>
		<g>
			<g>
				<g>
					<polygon style="fill:#12100B;" points="44.287,74.76 43.521,75.213 44.754,77.306 45.517,76.85 					"/>
					<polygon style="fill:#12100B;" points="42.455,71.648 41.687,72.095 42.919,74.188 43.685,73.738 					"/>
					<polygon style="fill:#12100B;" points="40.657,68.517 39.886,68.958 41.089,71.068 41.858,70.623 					"/>
					<polygon style="fill:#12100B;" points="38.869,65.38 38.094,65.815 39.296,67.925 40.069,67.485 					"/>
					<polygon style="fill:#12100B;" points="37.122,62.22 36.344,62.648 37.515,64.777 38.291,64.344 					"/>
					<polygon style="fill:#12100B;" points="35.381,59.057 34.599,59.479 35.77,61.606 36.55,61.18 					"/>
					<polygon style="fill:#12100B;" points="33.694,55.865 32.908,56.279 34.043,58.428 34.827,58.008 					"/>
				</g>
			</g>
			<g>
				<g>
					<path style="fill:#12100B;" d="M32.017,52.668l-0.79,0.407c0,0,0.279,0.539,0.559,1.078c0.284,0.537,0.567,1.074,0.567,1.074
						l0.788-0.411c0,0-0.283-0.536-0.566-1.072C32.295,53.206,32.017,52.668,32.017,52.668z"/>
					<polygon style="fill:#12100B;" points="30.395,49.444 29.6,49.842 30.692,52.013 31.484,51.609 					"/>
					<path style="fill:#12100B;" d="M28.8,46.208L28,46.595c0,0,0.26,0.549,0.521,1.099c0.272,0.543,0.544,1.086,0.544,1.086
						l0.797-0.394c0,0-0.271-0.541-0.543-1.083C29.06,46.756,28.8,46.208,28.8,46.208z"/>
					<polygon style="fill:#12100B;" points="27.256,42.948 26.45,43.321 27.49,45.519 28.293,45.137 					"/>
					<polygon style="fill:#12100B;" points="25.778,39.66 24.965,40.018 25.94,42.246 26.749,41.877 					"/>
					<path style="fill:#12100B;" d="M24.346,36.353l-0.821,0.339c0,0,0.225,0.565,0.475,1.12c0.244,0.557,0.487,1.114,0.487,1.114
						l0.816-0.352c0,0-0.243-0.554-0.485-1.108C24.569,36.914,24.347,36.352,24.346,36.353z"/>
					<polygon style="fill:#12100B;" points="23.033,33.001 22.201,33.314 23.09,35.582 23.915,35.251 					"/>
				</g>
			</g>
		</g>
	</g>
</g>
<g>
</g>
<g>
</g>
<g>
</g>
<g>
</g>
<g>
</g>
<g>
</g>
<g>
</g>
<g>
</g>
<g>
</g>
<g>
</g>
<g>
</g>
<g>
</g>
<g>
</g>
<g>
</g>
<g>
</g>
</svg>
