<?xml version="1.0" encoding="iso-8859-1"?>
<!-- Generator: Adobe Illustrator 16.0.4, SVG Export Plug-In . SVG Version: 6.00 Build 0)  -->
<!DOCTYPE svg PUBLIC "-//W3C//DTD SVG 1.1//EN" "http://www.w3.org/Graphics/SVG/1.1/DTD/svg11.dtd">
<svg version="1.1" id="Layer_1" xmlns="http://www.w3.org/2000/svg" xmlns:xlink="http://www.w3.org/1999/xlink" x="0px" y="0px"
	 width="80px" height="80px" viewBox="0 0 80 80" style="enable-background:new 0 0 80 80;" xml:space="preserve">
<rect style="fill:none;" width="80" height="80"/>
<g>
	<g style="opacity:0.35;">
		<g>
			<circle cx="42.245" cy="42.245" r="21.595"/>
		</g>
	</g>
	<g>
		<g>
			<path style="fill:#F1F2F2;" d="M39.755,60.729c-11.564,0-20.973-9.409-20.973-20.976c0-11.564,9.409-20.972,20.973-20.972
				s20.972,9.408,20.972,20.972C60.727,51.319,51.319,60.729,39.755,60.729z"/>
			<path style="fill:#231F20;" d="M39.755,19.403c11.221,0,20.35,9.129,20.35,20.35c0,11.223-9.129,20.354-20.35,20.354
				c-11.221,0-20.351-9.131-20.351-20.354C19.404,28.532,28.534,19.403,39.755,19.403 M39.755,18.158
				c-11.927,0-21.596,9.67-21.596,21.595c0,11.929,9.668,21.599,21.596,21.599c11.927,0,21.595-9.67,21.595-21.599
				C61.35,27.828,51.682,18.158,39.755,18.158L39.755,18.158z"/>
		</g>
		<polygon style="fill:#6D6E71;" points="54.695,35.613 43.896,35.613 43.896,24.812 35.614,24.812 35.614,35.613 24.814,35.613 
			24.814,43.895 35.614,43.895 35.614,54.696 43.896,54.696 43.896,43.895 54.695,43.895 		"/>
	</g>
</g>
<g>
</g>
<g>
</g>
<g>
</g>
<g>
</g>
<g>
</g>
<g>
</g>
<g>
</g>
<g>
</g>
<g>
</g>
<g>
</g>
<g>
</g>
<g>
</g>
<g>
</g>
<g>
</g>
<g>
</g>
</svg>
