<?xml version="1.0" encoding="iso-8859-1"?>
<!-- Generator: Adobe Illustrator 16.0.4, SVG Export Plug-In . SVG Version: 6.00 Build 0)  -->
<!DOCTYPE svg PUBLIC "-//W3C//DTD SVG 1.1//EN" "http://www.w3.org/Graphics/SVG/1.1/DTD/svg11.dtd">
<svg version="1.1" id="Layer_1" xmlns="http://www.w3.org/2000/svg" xmlns:xlink="http://www.w3.org/1999/xlink" x="0px" y="0px"
	 width="80px" height="80px" viewBox="0 0 80 80" style="enable-background:new 0 0 80 80;" xml:space="preserve">
<path style="fill:#FFFFFF;" d="M71.334,6.716L70.52,73.284L5.281,73.111c0.341-1.963,6.25-24.63,7.314-59.657
	c0.218-7.158,2.573-3.837,1.741-6.648L71.334,6.716z"/>
<path style="opacity:0.2;fill:#12100B;" d="M71.334,6.716L70.52,73L5.281,73.111c0.341-1.963,6.25-24.63,7.314-59.657
	c0.218-7.158,2.573-3.837,1.741-6.648L71.334,6.716z"/>
<path style="fill:#FFFFFF;" d="M75.167,6.716L74.353,73L9.114,73.111c0.341-1.963,6.25-24.63,7.314-59.657
	c0.218-7.158,2.573-3.927,1.741-6.739L75.167,6.716z"/>
<path style="fill:none;stroke:#000000;stroke-miterlimit:10;" d="M9.114,73.111c1.341-8.404,6.939-41.678,6.939-58.916
	c0-4.408,1.87-3.697,1.87-7.479"/>
<path style="opacity:0.1;fill:none;stroke:#12100B;stroke-miterlimit:10;" d="M66.779,49.617c0-12.187,2.37-38.699,2.37-42.901"/>
<path style="fill:none;stroke:#12100B;stroke-miterlimit:10;" d="M66.294,53.131C50.501,54.584,27.977,53.217,19.241,51
	c-1.311-0.332-0.344-4.33,0.841-4.104c8.736,1.689,37.997,3.283,46.511,2.006C67.345,48.787,66.962,53.07,66.294,53.131z"/>
<path style="fill:none;stroke:#DADADA;stroke-miterlimit:10;" d="M67.447,27.377c-8.947,1-37.707,0.08-43.54-1.07
	c-1.2-0.236-0.71-4.221,0.385-4.14c7.25,0.538,32.523,1.842,43.17,1.142C68.15,23.264,68.051,27.31,67.447,27.377z"/>
<rect style="fill:none;" width="80" height="80"/>
<path style="fill:none;stroke:#000000;stroke-miterlimit:10;" d="M18.613,50.566c-0.693-0.256-2.416,13.318-1.418,15.281
	c1.865,3.666,42.937,6.096,48.462,3.578c0.748-0.34,0.026-3.908-0.004-8.051c-0.029-3.971,0.873-8.303,0.641-8.244
	C60.395,54.584,27.135,53.73,18.613,50.566z"/>
<path style="fill:none;stroke:#DADADA;stroke-miterlimit:10;" d="M23.401,25.822c-0.645-0.148-1.615,11.016-0.718,12.835
	c1.673,3.402,37.782,4.632,43.115,2.876c0.698-0.23,1.02-3.951,0.981-7.788c-0.036-3.681,0.878-6.398,0.668-6.368
	C60.185,28.43,30.672,27.504,23.401,25.822z"/>
<g>
</g>
<g>
</g>
<g>
</g>
<g>
</g>
<g>
</g>
<g>
</g>
<g>
</g>
<g>
</g>
<g>
</g>
<g>
</g>
<g>
</g>
<g>
</g>
<g>
</g>
<g>
</g>
<g>
</g>
</svg>
