<?xml version="1.0" encoding="iso-8859-1"?>
<!-- Generator: Adobe Illustrator 19.1.1, SVG Export Plug-In . SVG Version: 6.00 Build 0)  -->
<svg version="1.1" id="Lager_1" xmlns="http://www.w3.org/2000/svg" xmlns:xlink="http://www.w3.org/1999/xlink" x="0px" y="0px"
	 viewBox="0 0 80.071 80.072" style="enable-background:new 0 0 80.071 80.072;" xml:space="preserve">
<g>
	<path style="opacity:0.35;" d="M1.333,46.453c1.554,3.863,5.837,16.596,5.837,16.689c0,0.192-0.033,0.779,0.316,1.064
		c0.35,0.288,0.881,0.465,1.065,0.628c0.183,0.164,0.183,0.164,0.183,0.164s0.232,0.302,0.266,0.165
		c0.033-0.138,0.033-0.138,0.033-0.138s-0.016-0.259,0.184-0.191c0.199,0.069,0.683,0.11,0.683,0.11s-0.966,4-1.182,4.777
		C8.5,70.502,8.167,72.399,8.167,73.19c0,0.792,0.017,1.283-0.05,1.529c-0.066,0.245-0.017,0.31,0.167,0.437
		c0.184,0.128,4.143,2.239,11.695,2.458c0.287,0.009,5.307,0.245,7.719-3.632c0.227-0.365,1.365-1.897,2.479-6.553
		c0.054-0.225,0.582-2.92,0.884-4.471c0.271,1.266,1.413,4.889,1.731,5.861c2.907,8.883,7.967,8.119,9.379,8.037
		c9.539-0.557,11.826-2.648,12.072-2.889c0.246-0.241-0.215-1.885-0.354-2.504c-0.139-0.621-1.033-3.908-1.234-4.756
		c-0.199-0.848-0.955-2.466-1.141-3.541c-0.184-1.074-0.91-3.611-1.047-3.934c-1.387-3.263-1.85-5.299-2.004-6.021
		c-0.154-0.72-0.602-5.272-0.385-6.613c0.215-1.341-0.047-3.542-0.047-4.604c0-1.063,0.385-2.188,0.508-2.605
		c0.123-0.417,5.211,29.252,5.363,29.884c0.154,0.633,0.309,0.62,0.816,0.646c0.51,0.024,6.289-1.404,6.598-1.53
		c0.307-0.126,0.4-0.152,0.307-0.594c-0.092-0.443-4.684-33.539-4.885-35.462c-0.092-0.89-0.168-4.54-0.154-5.109
		c0.107-4.489-0.123-5.906-0.201-6.715c-0.076-0.81-0.367-3.745-0.461-4.439c-0.217-1.581-0.973-2.593-1.188-2.972
		c-0.215-0.38-0.615-0.215-0.678-0.291c-0.215-0.986-5.76-2.143-9.186-3.023c-1.836-0.473-3.137-0.923-3.205-0.987
		c-4.757-4.384-6.648-4.243-11.512-4.447l-0.001-0.005c-0.832,0-5.024,0.353-7.049,1.444c-0.6,0.322-0.999,0.762-1.43,1.051
		c-1.281,0.859-1.656,1.549-2.313,1.938c-0.626,0.372-1.313,0.601-2.478,0.86c-1.165,0.26-2.413,0.969-3.012,1.037
		c-0.6,0.069-2.125,0.296-2.596,0.614c-0.664,0.451-1.646,0.492-2.212,0.724c-0.565,0.232-1.248,0.423-1.514,0.752
		c-0.267,0.327-1.5,2.563-2.196,5.419C4.99,19.688,2.095,34.096,1.25,40.536C0.726,44.532,1.332,46.453,1.333,46.453z
		 M13.458,45.436c-0.124,0.431-0.3,2.254-0.324,3.256c-0.025,1.004-0.374,5.25-0.374,5.25c-0.25-0.014-1.573-9.631-1.972-9.877
		c-0.399-0.246,2.121-5.959,2.196-6.779c0.074-0.818,0.249-0.307,0.3-0.082c0.05,0.227,0.099,1.086,0.174,1.68
		c0.075,0.594-0.075,1.208-0.2,2.109c-0.124,0.901,0.026,2.15,0.2,2.764C13.631,44.371,13.583,45.006,13.458,45.436z"/>
	<path style="fill:#DADADA;" d="M24.279,7.242c0.059-0.132,2.164-0.957,2.297-0.929C26.709,6.341,40.15,5.549,42.048,7.16
		c1.896,1.611-5.824,21.324-5.824,21.324s-2.861,10.32-3.061,10.703c-0.2,0.383-2.296-4.806-2.529-5.761
		C30.402,32.471,23.582,8.825,24.279,7.242z"/>
	<path style="fill:#FFFFFF;" d="M4.203,45.453c1.554,3.863,5.837,16.596,5.837,16.689c0,0.192-0.033,0.779,0.316,1.064
		c0.35,0.288,0.881,0.465,1.065,0.628c0.183,0.164,0.183,0.164,0.183,0.164s0.232,0.302,0.266,0.165
		c0.033-0.138,0.033-0.138,0.033-0.138s-0.016-0.259,0.184-0.191c0.199,0.069,0.683,0.11,0.683,0.11s-0.966,4-1.182,4.777
		c-0.216,0.779-0.549,2.677-0.549,3.468c0,0.792,0.017,1.283-0.05,1.529c-0.066,0.245-0.017,0.31,0.167,0.437
		c0.184,0.128,4.143,2.239,11.695,2.458c0.287,0.009,5.307,0.245,7.719-3.632c0.227-0.365,1.365-1.897,2.479-6.553
		c0.054-0.225,0.582-2.92,0.884-4.471c0.271,1.266,1.413,4.889,1.731,5.861c2.907,8.883,7.967,8.119,9.379,8.037
		c9.539-0.557,11.826-2.648,12.072-2.889c0.246-0.241-0.215-1.885-0.353-2.504c-0.139-0.621-1.033-3.908-1.234-4.756
		c-0.199-0.848-0.955-2.466-1.141-3.541c-0.184-1.074-0.91-3.611-1.047-3.934c-1.387-3.263-1.85-5.299-2.004-6.021
		c-0.154-0.72-0.602-5.272-0.385-6.613c0.215-1.341-0.047-3.542-0.047-4.604c0-1.063,0.385-2.188,0.508-2.605
		s5.211,29.252,5.363,29.884c0.154,0.633,0.309,0.62,0.816,0.646c0.51,0.024,6.289-1.404,6.598-1.53
		c0.307-0.126,0.4-0.152,0.307-0.594c-0.092-0.443-4.684-33.539-4.885-35.462c-0.092-0.89-0.168-4.54-0.154-5.109
		c0.107-4.489-0.123-5.906-0.201-6.715c-0.076-0.81-0.367-3.745-0.461-4.439c-0.217-1.581-0.973-2.593-1.188-2.972
		c-0.215-0.38-0.615-0.215-0.678-0.291c-0.215-0.986-5.76-2.143-9.186-3.023c-1.836-0.473-3.137-0.923-3.205-0.987
		c-4.757-4.384-6.648-4.243-11.512-4.447l-0.001-0.005c-0.832,0-5.024,0.353-7.049,1.444c-0.6,0.322-0.999,0.762-1.43,1.051
		c-1.281,0.859-1.656,1.549-2.313,1.938c-0.626,0.372-1.313,0.601-2.478,0.86c-1.165,0.26-2.413,0.969-3.012,1.037
		c-0.6,0.069-2.125,0.296-2.596,0.614c-0.664,0.451-1.646,0.492-2.212,0.724c-0.565,0.232-0.683,0.506-0.898,0.56
		c-0.216,0.055-0.35-0.137-0.616,0.192c-0.267,0.327-1.499,2.563-2.196,5.419C7.86,18.688,4.965,33.096,4.12,39.536
		C3.596,43.532,4.202,45.453,4.203,45.453z M16.328,44.436c-0.124,0.431-0.3,2.254-0.324,3.256c-0.025,1.004-0.374,5.25-0.374,5.25
		c-0.25-0.014-1.573-9.631-1.972-9.877c-0.399-0.246,2.121-5.959,2.196-6.779c0.074-0.818,0.249-0.307,0.3-0.082
		c0.05,0.227,0.099,1.086,0.174,1.68c0.075,0.594-0.075,1.208-0.2,2.109c-0.124,0.901,0.026,2.15,0.2,2.764
		C16.501,43.371,16.453,44.006,16.328,44.436z M41.282,9.57c-0.225,0.859-2.896,9.439-3.32,10.791
		c-0.424,1.352-1.473,4.443-2.096,6.451c-1.438,4.625-2.237,7.96-2.716,10.142c-0.056-0.097-0.097-0.177-0.103-0.219
		c-0.034-0.186-1.166-5.406-2.663-10.034c-0.211-0.651-2.862-9.979-3.094-10.663c-0.233-0.682-2.146-7.152-2.196-7.549
		c-0.051-0.396-0.066-1.297-0.018-1.283c0.051,0.014,1.848-0.328,2.846-0.328c0.986,0,8.564-0.155,10.414-0.074
		c1.801,0.08,3.095,0.328,3.177,0.369C41.681,7.256,41.507,8.71,41.282,9.57z"/>
	
		<line style="fill:none;stroke:#9D9D9C;stroke-width:0.6239;stroke-miterlimit:10;" x1="33.048" y1="36.736" x2="33.048" y2="6.822"/>
	<polygon style="fill:none;stroke:#000000;stroke-width:0.624;stroke-miterlimit:10;" points="78.183,44.533 75.257,33.377 
		74.915,33.518 78.278,46.128 	"/>
	<path style="fill:none;stroke:#000000;stroke-width:0.624;stroke-miterlimit:10;" d="M60.54,78.977
		c-0.014-0.123-0.029-0.249-0.043-0.374c-0.441-3.849-0.785-8.636-0.836-10.218c-0.066-2.075,1.037-11.246,1.037-11.246
		s1.977,3.447,2.41,4.82c0.436,1.371,1.34,4.887,1.508,6.726c0.166,1.841,1.037,7.631,1.07,9.238
		c0.004,0.212,0.018,0.485,0.039,0.804c0.006,0.101,0.014,0.204,0.021,0.312"/>
	<path style="opacity:0.7;" d="M24.898,5.786c-0.087-0.887-4.675,3.69-4.675,4.429c-0.001,2.905,9.57,25.623,12.264,28.734
		c1.207,1.394,0.581-1.872,0.527-2.213c-0.054-0.341-7.407-26.096-7.711-27.357C24.999,8.117,24.912,5.924,24.898,5.786z"/>
	<linearGradient id="SVGID_1_" gradientUnits="userSpaceOnUse" x1="38.6953" y1="34.7" x2="18.8828" y2="10.2336">
		<stop  offset="0" style="stop-color:#000000"/>
		<stop  offset="0.0756" style="stop-color:#040404"/>
		<stop  offset="0.1477" style="stop-color:#0F0F0F"/>
		<stop  offset="0.2184" style="stop-color:#232323"/>
		<stop  offset="0.2882" style="stop-color:#3E3E3E"/>
		<stop  offset="0.3574" style="stop-color:#606060"/>
		<stop  offset="0.4263" style="stop-color:#8B8B8B"/>
		<stop  offset="0.4948" style="stop-color:#BEBEBE"/>
		<stop  offset="0.5614" style="stop-color:#F7F7F7"/>
		<stop  offset="0.5699" style="stop-color:#FFFFFF"/>
		<stop  offset="0.6094" style="stop-color:#E1E1E1"/>
		<stop  offset="0.7196" style="stop-color:#929292"/>
		<stop  offset="0.8176" style="stop-color:#535353"/>
		<stop  offset="0.8999" style="stop-color:#262626"/>
		<stop  offset="0.9632" style="stop-color:#0A0A0A"/>
		<stop  offset="1" style="stop-color:#000000"/>
	</linearGradient>
	<path style="opacity:0.5;fill:url(#SVGID_1_);" d="M24.898,5.786c-0.087-0.887-4.675,3.69-4.675,4.429
		c-0.001,2.905,9.57,25.623,12.264,28.734c1.207,1.394,0.581-1.872,0.527-2.213c-0.054-0.341-7.407-26.096-7.711-27.357
		C24.999,8.117,24.912,5.924,24.898,5.786z"/>
	<path style="opacity:0.7;" d="M25.546,7.139c0.906,0.23,6.305-0.372,7.503-0.358c1.197,0.014,7.896,0.343,8.505,0.437
		c0.61,0.094,0.409-1.667-0.529-2.183s-4.198-1.739-5.531-1.688c-1.333,0.051-6.077,0.191-7.567,0.669s-2.943,0.688-2.879,1.437
		C25.112,6.201,24.639,6.909,25.546,7.139z"/>
	<path style="opacity:0.7;" d="M32.597,40.619c0.111,0.254,7.701-14.314,9.095-18.136s4.632-10.072,4.95-11.822
		s-4.02-4.715-4.774-5.045s-0.303,1.792-0.466,2.717C41.086,10.119,31.736,38.65,32.597,40.619z"/>
	<linearGradient id="SVGID_2_" gradientUnits="userSpaceOnUse" x1="27.0603" y1="36.4486" x2="47.3257" y2="9.5555">
		<stop  offset="0" style="stop-color:#000000"/>
		<stop  offset="0.0756" style="stop-color:#040404"/>
		<stop  offset="0.1477" style="stop-color:#0F0F0F"/>
		<stop  offset="0.2184" style="stop-color:#232323"/>
		<stop  offset="0.2882" style="stop-color:#3E3E3E"/>
		<stop  offset="0.3574" style="stop-color:#606060"/>
		<stop  offset="0.4263" style="stop-color:#8B8B8B"/>
		<stop  offset="0.4948" style="stop-color:#BEBEBE"/>
		<stop  offset="0.5614" style="stop-color:#F7F7F7"/>
		<stop  offset="0.5699" style="stop-color:#FFFFFF"/>
		<stop  offset="0.6094" style="stop-color:#E1E1E1"/>
		<stop  offset="0.7196" style="stop-color:#929292"/>
		<stop  offset="0.8176" style="stop-color:#535353"/>
		<stop  offset="0.8999" style="stop-color:#262626"/>
		<stop  offset="0.9632" style="stop-color:#0A0A0A"/>
		<stop  offset="1" style="stop-color:#000000"/>
	</linearGradient>
	<path style="opacity:0.5;fill:url(#SVGID_2_);" d="M32.597,40.619c0.111,0.254,7.701-14.314,9.095-18.136s4.632-10.072,4.95-11.822
		s-4.02-4.715-4.774-5.045s-0.303,1.792-0.466,2.717C41.086,10.119,31.736,38.65,32.597,40.619z"/>
	<path style="fill:none;stroke:#000000;stroke-width:0.624;stroke-miterlimit:10;" d="M4.203,45.453
		c1.554,3.863,5.837,16.596,5.837,16.689c0,0.192-0.033,0.779,0.316,1.064c0.35,0.288,0.881,0.465,1.065,0.628
		c0.183,0.164,0.183,0.164,0.183,0.164s0.232,0.302,0.266,0.165c0.033-0.138,0.033-0.138,0.033-0.138s-0.016-0.259,0.184-0.191
		c0.199,0.069,0.683,0.11,0.683,0.11s-0.966,4-1.182,4.777c-0.216,0.779-0.549,2.677-0.549,3.468c0,0.792,0.017,1.283-0.05,1.529
		c-0.066,0.245-0.017,0.31,0.167,0.437c0.184,0.128,4.143,2.239,11.695,2.458c0.287,0.009,5.307,0.245,7.719-3.632
		c0.227-0.365,1.365-1.897,2.479-6.553c0.054-0.225,0.582-2.92,0.884-4.471c0.271,1.266,1.413,4.889,1.731,5.861
		c2.907,8.883,7.967,8.119,9.379,8.037c9.539-0.557,11.826-2.648,12.072-2.889c0.246-0.241-0.215-1.885-0.353-2.504
		c-0.139-0.621-1.033-3.908-1.234-4.756c-0.199-0.848-0.955-2.466-1.141-3.541c-0.184-1.074-0.91-3.611-1.047-3.934
		c-1.387-3.263-1.85-5.299-2.004-6.021c-0.154-0.72-0.602-5.272-0.385-6.613c0.215-1.341-0.047-3.542-0.047-4.604
		c0-1.063,0.385-2.188,0.508-2.605s5.211,29.252,5.363,29.884c0.154,0.633,0.309,0.62,0.816,0.646
		c0.51,0.024,6.289-1.404,6.598-1.53c0.307-0.126,0.4-0.152,0.307-0.594c-0.092-0.443-4.684-33.539-4.885-35.462
		c-0.092-0.89-0.168-4.54-0.154-5.109c0.107-4.489-0.123-5.906-0.201-6.715c-0.076-0.81-0.367-3.745-0.461-4.439
		c-0.217-1.581-0.973-2.593-1.188-2.972c-0.215-0.38-0.615-0.215-0.678-0.291c-0.215-0.986-5.76-2.143-9.186-3.023
		c-1.836-0.473-3.137-0.923-3.205-0.987c-4.757-4.384-6.648-4.243-11.512-4.447l-0.001-0.005c-0.832,0-5.024,0.353-7.049,1.444
		c-0.6,0.322-0.999,0.762-1.43,1.051c-1.281,0.859-1.656,1.549-2.313,1.938c-0.626,0.372-1.313,0.601-2.478,0.86
		c-1.165,0.26-2.413,0.969-3.012,1.037c-0.6,0.069-2.125,0.296-2.596,0.614c-0.664,0.451-1.646,0.492-2.212,0.724
		c-0.565,0.232-0.683,0.506-0.898,0.56c-0.216,0.055-0.35-0.137-0.616,0.192c-0.267,0.327-1.499,2.563-2.196,5.419
		C7.86,18.688,4.965,33.096,4.12,39.536C3.596,43.532,4.202,45.453,4.203,45.453z M16.328,44.436
		c-0.124,0.431-0.3,2.254-0.324,3.256c-0.025,1.004-0.374,5.25-0.374,5.25c-0.25-0.014-1.573-9.631-1.972-9.877
		c-0.399-0.246,2.121-5.959,2.196-6.779c0.074-0.818,0.249-0.307,0.3-0.082c0.05,0.227,0.099,1.086,0.174,1.68
		c0.075,0.594-0.075,1.208-0.2,2.109c-0.124,0.901,0.026,2.15,0.2,2.764C16.501,43.371,16.453,44.006,16.328,44.436z M41.282,9.57
		c-0.225,0.859-2.896,9.439-3.32,10.791c-0.424,1.352-1.473,4.443-2.096,6.451c-1.438,4.625-2.237,7.96-2.716,10.142
		c-0.056-0.097-0.097-0.177-0.103-0.219c-0.034-0.186-1.166-5.406-2.663-10.034c-0.211-0.651-2.862-9.979-3.094-10.663
		c-0.233-0.682-2.146-7.152-2.196-7.549c-0.051-0.396-0.066-1.297-0.018-1.283c0.051,0.014,1.848-0.328,2.846-0.328
		c0.986,0,8.564-0.155,10.414-0.074c1.801,0.08,3.095,0.328,3.177,0.369C41.681,7.256,41.507,8.71,41.282,9.57z"/>
	<path style="fill:#FFFFFF;stroke:#000000;stroke-width:0.624;stroke-miterlimit:10;" d="M51.237,22.082l-0.424,2.32l-8.051,0.205
		l-0.109-2.239c0,0,4.043-0.286,5.314-0.308C49.241,22.041,51.237,22.082,51.237,22.082z"/>
	<path style="fill:none;stroke:#9D9D9C;stroke-width:0.6239;stroke-miterlimit:10;" d="M45.241,52.977
		c-2.406-11.062,2.726-23.1,2.726-23.1"/>
	<path style="fill:none;stroke:#9D9D9C;stroke-width:0.6239;stroke-miterlimit:10;" d="M21.984,53.44
		c0-0.109,2.263-12.054,0.865-17.065c-0.482-1.729-1.23-5.68-1.265-6.471"/>
	<path style="fill:none;stroke:#E50742;stroke-width:0.624;stroke-miterlimit:10;" d="M41.532,8.334"/>
	<path style="fill:none;stroke:#000000;stroke-width:0.624;stroke-miterlimit:10;" d="M33.013,3.352c0,0,7.863,0,8.468,3.043
		c0.045,0.229,0.066,0.528,0.072,0.823l0.014,0.078c0.061,0.382-0.094,1.542-0.285,2.274c-0.225,0.859-2.896,9.439-3.32,10.791
		c-0.424,1.352-1.473,4.443-2.096,6.451c-2.039,6.559-2.795,10.525-3.169,12.286c-0.119,0.562-0.339,2.574-0.339,2.574
		c0.066-0.354,0.423-1.146,0.721-1.583c0.301-0.437,1.132-1.816,1.465-2.417s4.475-9.379,4.741-9.938
		c0.267-0.559,4.243-9.124,4.375-9.475c1.182-3.099,3.205-7.055,3-8.099c-0.133-0.676-2.072-2.347-2.072-2.347
		c-0.473-0.441-2.088-1.875-3.665-2.839c-0.837-0.512-1.818-0.938-3.078-1.228c-0.812-0.186-1.755-0.261-2.832-0.318
		C34.394,3.396,33.74,3.334,33.013,3.352z"/>
	<path style="fill:none;stroke:#000000;stroke-width:0.624;stroke-miterlimit:10;" d="M36.49,56.799c0,0-1.347,0.068-1.63,0.027
		c-0.282-0.041-0.781-0.096-0.798,0.287c-0.018,0.382,0.282,0.396,0.516,0.382c0.232-0.014,0.349-0.205,0.732-0.231
		c0.382-0.028,0.98-0.109,1.146-0.137C36.625,57.099,36.707,56.867,36.49,56.799z"/>
	<path style="fill:none;stroke:#000000;stroke-width:0.624;stroke-miterlimit:10;" d="M35.517,43.789c0,0-1.35-0.059-1.624-0.125
		c-0.276-0.068-0.765-0.168-0.833,0.21c-0.069,0.378,0.227,0.42,0.459,0.429c0.233,0.007,0.375-0.172,0.76-0.163
		c0.385,0.009,0.99-0.017,1.159-0.028C35.607,44.099,35.722,43.877,35.517,43.789z"/>
	<path style="fill:none;stroke:#000000;stroke-width:0.624;stroke-miterlimit:10;" d="M33.013,3.352c0,0-7.719,0.352-7.901,2.85
		s-0.013,2.304,0.037,2.528c0,0,0.648,2.243,0.749,2.571c0.1,0.326,2.508,8.519,2.594,8.814c0.089,0.297,2.172,7.352,2.447,8.213
		c0.274,0.859,1.684,6.348,1.796,6.9c0.112,0.553,0.405,1.787,0.405,1.787l-0.445,2.212c0,0-0.459-0.727-0.621-1.03
		c-1.148-2.149-3.395-6.45-3.594-6.859c-0.199-0.41-3.443-7.506-3.718-8.059c-0.274-0.553-4.82-11.77-4.505-13.064
		c0.154-0.632,2.171-2.57,2.371-2.806c0,0,0.849-0.86,1.16-1.085c0.313-0.226,1.41-1.076,1.609-1.249
		C25.597,4.9,27.183,3.631,33.013,3.352z"/>
	<path style="fill:none;stroke:#000000;stroke-width:0.624;stroke-miterlimit:10;" d="M11.038,11.501c0,0,0.749,1.231,1.064,2.021
		c3.021,7.558,3.843,22.267,3.909,22.443"/>
	<path style="fill:#FFFFFF;stroke:#000000;stroke-width:0.624;stroke-miterlimit:10;" d="M32.359,41.673
		c-0.126,0.836-0.05,14.676,1.572,20.286"/>
	<path style="opacity:0.35;" d="M52.788,56.998c0,0-1.041,0.374-1.602,0.461c-0.561,0.086-2.033,0.15-2.611,0.244
		c-0.578,0.094-2.566,0.346-3.197-0.164c-0.631-0.512-0.912-3.898-0.912-3.898l8.113,2.862L52.788,56.998z"/>
	<path style="fill:#FFFFFF;stroke:#000000;stroke-width:0.624;stroke-miterlimit:10;" d="M44.458,53.453
		c0,0,0.217,2.035,0.451,2.745c0.232,0.71,0.502,1.716,3.193,1.351c1.414-0.19,1.764-0.218,2.445-0.244
		c0.682-0.027,2.063-0.314,2.297-0.41l-1.365-3.918C51.48,52.977,49.384,53.481,44.458,53.453z"/>
	<path style="fill:#575756;" d="M44.538,53.578v0.08c0,0,5.088,0.24,6.955-0.473l-0.016-0.066
		C51.478,53.119,50.489,53.625,44.538,53.578z"/>
	<path style="opacity:0.35;" d="M17.554,57.842c0.109,0.012,0.267,0.047,0.348,0.06c0.578,0.094,2.41,0.458,3.048-0.047
		c0.829-0.657,1.061-4.016,1.061-4.016l-5.241,1.849"/>
	<path style="fill:#FFFFFF;stroke:#000000;stroke-width:0.624;stroke-miterlimit:10;" d="M51.415,52.779c0,0-1.213,0.26-2.861,0.301
		c-1.646,0.041-4.127,0.137-4.127,0.137s-0.049,0.178-0.031,0.3c0.016,0.122,3.144,0.069,4.242,0.014
		c1.098-0.055,2.512-0.286,2.877-0.45C51.53,53.072,51.415,52.779,51.415,52.779z"/>
	<path style="fill:#FFFFFF;stroke:#000000;stroke-width:0.624;stroke-miterlimit:10;" d="M15.655,53.045l0.007-0.096
		c0,0,2.646,0.574,3.877,0.574c1.231,0,2.877,0.121,2.877,0.121c0.018,0.055-0.447,1.394-0.515,1.844
		c-0.066,0.45-0.267,2.498-2.246,2.402c-0.661-0.031-1.557-0.122-2.196-0.197"/>
	<path style="fill:#575756;" d="M22.359,53.799l-0.005,0.079c0,0-4.8-0.047-6.64-0.679l-0.06-0.124
		C15.654,53.075,16.415,53.575,22.359,53.799z"/>
	<path style="fill:#FFFFFF;stroke:#000000;stroke-width:0.624;stroke-miterlimit:10;" d="M15.654,52.553
		c0,0,1.747,0.598,3.844,0.707c1.245,0.065,2.924,0.06,3.044,0.215c0.058,0.075-0.142,0.293-0.142,0.293s-3.261-0.068-4.625-0.271
		c-1.074-0.162-2.047-0.4-2.047-0.4L15.654,52.553z"/>
	<path style="opacity:0.35;" d="M17.977,59.427c0,0,0.783,5.896-5.538,6.119l0.408-1.674c0,0,1.524,0.074,3.471-1.288
		c0.692-0.484,1.274-1.03,1.508-1.584C18.171,60.186,17.977,59.427,17.977,59.427z"/>
	<path style="fill:#DADADA;stroke:#000000;stroke-width:0.624;stroke-miterlimit:10;" d="M10.088,61.776c0,0,2.743,1.78,4.825,0.023
		c2.591-2.188,1.241-3.714,1.227-3.731c-0.033-0.041-0.49-0.047-0.611-0.058c-0.133-0.012-0.994-0.069-1.826,0.096
		c-0.83,0.163-2.158,0.676-3.019,2.076C10.354,60.722,10.138,61.6,10.088,61.776z"/>
	<path style="fill:none;stroke:#000000;stroke-width:0.624;stroke-miterlimit:10;" d="M10.035,62.017
		c-0.033-0.327,0.47-1.368,0.603-1.724c0.133-0.354,1.231-1.992,3.344-2.238c0.704-0.082,2.412-0.177,3.194,0.287
		c0.765,0.453,2.202,2.938-2.047,4.941c-0.962,0.454-1.813,0.615-2.345,0.588"/>
	<path style="fill:none;stroke:#000000;stroke-width:0.624;stroke-miterlimit:10;" d="M15.577,52.687
		c0.017,0.042,2.726,6.657,2.459,7.56"/>
	<path style="fill:#FFFFFF;stroke:#000000;stroke-width:0.624;stroke-miterlimit:10;" d="M34.467,44.017
		c0,0.507-0.411,0.918-0.919,0.918l0,0c-0.508,0-0.918-0.411-0.918-0.918c0,0,0.045-0.868,0.641-0.868l0.277-0.051
		C34.056,43.098,34.467,43.51,34.467,44.017L34.467,44.017z"/>
	<path style="fill:#FFFFFF;stroke:#000000;stroke-width:0.624;stroke-miterlimit:10;" d="M34.525,43.9c0,0.508-0.41,0.92-0.918,0.92
		l0,0c-0.508,0-0.919-0.412-0.919-0.92l0,0c0-0.507,0.411-0.918,0.919-0.918l0,0C34.115,42.982,34.525,43.394,34.525,43.9
		L34.525,43.9z"/>
	<g>
		<path style="fill:#FFFFFF;stroke:#000000;stroke-width:0.624;stroke-miterlimit:10;" d="M33.363,43.883
			c0.038,0.032,0.041,0.09,0.009,0.127l0,0c-0.032,0.038-0.089,0.042-0.128,0.01l0,0c-0.037-0.033-0.041-0.09-0.009-0.128l0,0
			C33.268,43.854,33.325,43.85,33.363,43.883L33.363,43.883z"/>
		<path style="fill:#FFFFFF;stroke:#000000;stroke-width:0.624;stroke-miterlimit:10;" d="M33.65,43.57
			c0.037,0.033,0.041,0.09,0.009,0.128l0,0c-0.033,0.038-0.09,0.042-0.128,0.009l0,0c-0.037-0.032-0.042-0.089-0.009-0.127l0,0
			C33.555,43.543,33.612,43.538,33.65,43.57L33.65,43.57z"/>
		<path style="fill:#FFFFFF;stroke:#000000;stroke-width:0.624;stroke-miterlimit:10;" d="M33.666,44.147
			c0.038,0.031,0.043,0.09,0.01,0.127l0,0c-0.033,0.038-0.09,0.042-0.128,0.009l0,0c-0.037-0.032-0.042-0.09-0.009-0.127l0,0
			C33.571,44.117,33.628,44.113,33.666,44.147L33.666,44.147z"/>
		<path style="fill:#FFFFFF;stroke:#000000;stroke-width:0.624;stroke-miterlimit:10;" d="M33.944,43.826
			c0.037,0.033,0.042,0.09,0.009,0.128l0,0c-0.032,0.038-0.09,0.042-0.128,0.009l0,0c-0.038-0.032-0.042-0.09-0.009-0.127l0,0
			C33.849,43.798,33.906,43.794,33.944,43.826L33.944,43.826z"/>
	</g>
	<path style="fill:#FFFFFF;stroke:#000000;stroke-width:0.624;stroke-miterlimit:10;" d="M35.357,57.237
		c0,0.507-0.412,0.919-0.919,0.919l0,0c-0.507,0-0.919-0.412-0.919-0.919c0,0,0.047-0.868,0.642-0.868l0.277-0.051
		C34.945,56.318,35.357,56.73,35.357,57.237L35.357,57.237z"/>
	<path style="fill:#FFFFFF;stroke:#000000;stroke-width:0.624;stroke-miterlimit:10;" d="M35.416,57.123
		c0,0.507-0.412,0.918-0.919,0.918l0,0c-0.507,0-0.918-0.411-0.918-0.918l0,0c0-0.508,0.411-0.92,0.918-0.92l0,0
		C35.003,56.203,35.416,56.615,35.416,57.123L35.416,57.123z"/>
	<g>
		<path style="fill:#FFFFFF;stroke:#000000;stroke-width:0.624;stroke-miterlimit:10;" d="M34.253,57.104
			c0.037,0.033,0.041,0.09,0.008,0.128l0,0c-0.032,0.038-0.09,0.042-0.127,0.009l0,0c-0.037-0.032-0.042-0.09-0.009-0.127l0,0
			C34.158,57.075,34.215,57.071,34.253,57.104L34.253,57.104z"/>
		<path style="fill:#FFFFFF;stroke:#000000;stroke-width:0.624;stroke-miterlimit:10;" d="M34.539,56.792
			c0.038,0.032,0.042,0.091,0.01,0.128l0,0c-0.033,0.037-0.09,0.042-0.127,0.009l0,0c-0.039-0.032-0.042-0.09-0.01-0.128l0,0
			C34.445,56.764,34.501,56.76,34.539,56.792L34.539,56.792z"/>
		<path style="fill:#FFFFFF;stroke:#000000;stroke-width:0.624;stroke-miterlimit:10;" d="M34.556,57.367
			c0.037,0.033,0.041,0.09,0.009,0.127l0,0c-0.032,0.039-0.089,0.042-0.127,0.01l0,0c-0.038-0.033-0.042-0.09-0.01-0.128l0,0
			C34.461,57.338,34.518,57.334,34.556,57.367L34.556,57.367z"/>
		<path style="fill:#FFFFFF;stroke:#000000;stroke-width:0.624;stroke-miterlimit:10;" d="M34.834,57.047
			c0.037,0.033,0.041,0.09,0.01,0.128l0,0c-0.033,0.038-0.09,0.042-0.128,0.009l0,0c-0.038-0.032-0.042-0.09-0.01-0.127l0,0
			C34.739,57.02,34.795,57.015,34.834,57.047L34.834,57.047z"/>
	</g>
	<path style="fill:none;stroke:#000000;stroke-width:0.624;stroke-miterlimit:10;" d="M54.929,11.809c0,0,0.063,0.354-0.15,0.73
		c-4.369,7.717-5.309,25.733-5.309,25.733"/>
</g>
<rect style="fill:none;" width="80.071" height="80.072"/>
<path style="opacity:0.35;" d="M45.757,78.705c-0.514-2.911-1.068-6.303-1.277-7.561c-0.369-2.209-2.545-11.646-2.51-16.634
	c0.033-4.986-0.201-9.672-0.469-11.814c-0.268-2.142,0.334-4.518,0.869-6.226c0.207-0.657,0.477-1.075,0.535-1.474
	c0.096-0.634-0.076-1.13,0.102-1.807c0.367-1.405,0.133-2.719,0.92-3.029c0,0,4.588-2.546,16.518-1.99
	c12.215,0.568,13.42,1.338,13.721,2.677c0.301,1.339,0.604,2.645,0.67,3.381c0.066,0.736,0.268,3.548,0.602,4.149
	c0.336,0.603,0.303,1.271,0.303,2.008c0,0.736,0.436,1.809,0.4,2.912c-0.033,1.105,0.301,7.564,0.469,8.77
	c0.168,1.205-0.502,10.106-0.402,11.68c0.102,1.573-0.26,13.542-0.227,14.947c0.002,0.092,0.006-0.016,0.008,0.09l-12.15,0.21
	c-0.008-0.108-0.074-0.021-0.08-0.122c-0.021-0.318-0.035,0.031-0.041-0.182c-0.033-1.606-0.896-6.543-1.063-8.383
	c-0.168-1.841-1.072-5.355-1.508-6.728c-0.434-1.372-2.408-4.819-2.408-4.819s-1.103,9.17-1.039,11.245
	c0.053,1.581,0.131,4.421,0.572,8.271c0.014,0.125-0.359,0.149,0.127,0.623L45.757,78.705z"/>
<path style="fill:#FFFFFF;" d="M48.106,78.779c-0.691-3.778-1.455-7.999-1.666-9.257c-0.367-2.209-2.543-11.646-2.508-16.634
	c0.033-4.986-0.203-9.673-0.469-11.814c-0.267-2.142,0.334-4.518,0.869-6.225c0.207-0.658,0.475-1.075,0.535-1.473
	c0.096-0.635-0.076-1.131,0.102-1.808c0.367-1.406,0.133-2.72,0.92-3.029c0,0,4.588-2.546,16.516-1.991
	c12.217,0.568,13.422,1.338,13.723,2.678c0.301,1.338,0.604,2.645,0.67,3.381c0.066,0.735,0.268,3.547,0.602,4.149
	c0.336,0.603,0.303,1.271,0.303,2.009c0,0.736,0.434,1.807,0.4,2.912c-0.033,1.104,0.301,7.563,0.469,8.768
	c0.168,1.205-0.502,10.107-0.402,11.681c0.102,1.573-0.232,15.027-0.199,16.433c0.002,0.092,0.004,0.191,0.006,0.299l-12.229,0.182
	c-0.008-0.107-0.016-0.211-0.021-0.312c-0.021-0.318-0.035-0.592-0.039-0.804c-0.033-1.607-0.904-7.397-1.07-9.238
	c-0.168-1.84-1.072-5.355-1.508-6.726c-0.434-1.373-2.41-4.82-2.41-4.82s-1.104,9.171-1.037,11.246
	c0.051,1.582,0.395,6.369,0.836,10.218c0.014,0.125,0.029,0.251,0.043,0.374L48.106,78.779z"/>
<path style="fill:#FFFFFF;stroke:#000000;stroke-miterlimit:10;" d="M77.566,42.313c-0.063,3.544-0.779,15.213-0.744,21.161
	c0.018,3-0.566,14.027-0.441,15.384"/>
<path style="fill:none;stroke:#000000;stroke-width:0.624;stroke-miterlimit:10;" d="M77.976,78.857
	c-0.002-0.107-0.004-0.207-0.006-0.299c-0.033-1.405,0.301-14.859,0.199-16.433c-0.1-1.573,0.57-10.476,0.402-11.681
	c-0.168-1.205-0.502-7.664-0.469-8.768c0.033-1.106-0.4-2.176-0.4-2.912c0-0.737,0.033-1.406-0.303-2.009
	c-0.334-0.603-0.535-3.414-0.602-4.149c-0.066-0.736-0.369-2.043-0.67-3.381c-0.301-1.34-1.506-2.109-13.723-2.678
	C50.478,25.994,45.89,28.54,45.89,28.54c-0.787,0.31-0.553,1.623-0.92,3.029c-0.178,0.677-0.006,1.173-0.102,1.808
	c-0.061,0.397-0.328,0.814-0.535,1.473c-0.535,1.707-1.137,4.083-0.869,6.225c0.266,2.142,0.502,6.828,0.469,11.814
	c-0.035,4.987,2.141,14.425,2.508,16.634c0.211,1.258,0.975,5.479,1.666,9.257"/>
<path style="fill:none;stroke:#000000;stroke-width:0.624;stroke-miterlimit:10;" d="M44.892,32.07c0,0,0.713,0.871,2.152,1.105
	c1.439,0.234,5.205,0.736,6.41,0.903c1.203,0.167,2.832,0.56,3.865,0.536c0.803-0.02,9.338-0.268,11.01-0.301
	c1.674-0.034,7.834,0,8.369-2.41l-0.57-2.678c0,0-0.434,1.472-3.58,1.807c-3.146,0.335-10.486,0.603-11.754,0.67
	c-1.266,0.066-3.508,0-4.547-0.102c-1.037-0.1-5.822-0.803-6.826-0.903c-0.781-0.077-3.289-0.134-3.791-1.413
	c-0.1-0.254-0.016-0.553-0.037-0.537c-0.08,0.059-0.209,0.344-0.285,0.852c-0.078,0.509-0.213,1.448-0.283,1.738
	C44.956,31.628,44.892,32.07,44.892,32.07z"/>
<path style="fill:#FFFFFF;" d="M56.464,34.544c0,0-1.537-0.08-1.756-0.08c-0.217,0-0.854-0.72-0.836-1.522
	c0.016-0.804,0.848-1.35,1.701-1.338c0.766,0.011,1.697,0.074,2.197,0.092"/>
<path style="fill:none;stroke:#000000;stroke-width:0.624;stroke-miterlimit:10;" d="M57.134,34.615c0,0-2.207-0.151-2.426-0.151
	c-0.217,0-0.854-0.72-0.836-1.522c0.016-0.804,0.908-1.361,1.719-1.332c0.766,0.029,1.68,0.068,2.18,0.086"/>
<path style="fill:#DADADA;stroke:#000000;stroke-width:0.624;stroke-miterlimit:10;" d="M47.011,30.331
	c0,0,4.217-1.875,13.154-1.573c8.936,0.301,11.277,0.568,14.557,1.674c0,0,0.938-0.443,1.264-0.921
	c0.326-0.477-0.576-1.808-6.15-2.284c-5.57-0.477-11.521-0.678-12.877-0.577c-1.002,0.073-7.771,0.276-11.283,2.206
	C45.36,29.027,45.923,30.121,47.011,30.331z"/>
<path style="fill:none;stroke:#000000;stroke-width:0.624;stroke-miterlimit:10;" d="M57.118,34.683c0,0-0.502,9.504,0.133,12.249
	c0.637,2.744,1.441,6.928,1.875,7.564c0.436,0.635,1.271,1.64,1.572,2.643"/>
<path style="fill:none;stroke:#000000;stroke-width:0.624;stroke-miterlimit:10;" d="M59.427,35.752c0,0-0.033,8.223-0.1,9.364
	c-0.066,1.142-0.938,2.752-1.908,2.886"/>
<path style="fill:none;stroke:#9D9D9C;stroke-width:0.6239;stroke-miterlimit:10;" d="M49.655,44.421c0,0-1.406,10.242-0.101,21.588
	c0.463,4.015,1.088,8.407,1.783,12.673"/>
<path style="fill:none;stroke:#9D9D9C;stroke-width:0.6239;stroke-miterlimit:10;" d="M65.618,47.635c0,0,2.209,19.076,3.314,25.201
	c0.275,1.531,0.471,3.471,0.645,5.623"/>
<path d="M57.048,33.25c-0.008,0.064-0.068,0.107-0.131,0.099l-1.24-0.185c-0.063-0.01-0.105-0.068-0.096-0.131l0,0
	c0.008-0.063,0.066-0.107,0.131-0.097l1.238,0.184C57.015,33.129,57.058,33.188,57.048,33.25L57.048,33.25z"/>
<g>
	<circle style="fill:#FFFFFF;stroke:#000000;stroke-width:0.624;stroke-miterlimit:10;" cx="55.611" cy="33.003" r="0.685"/>
	<circle cx="55.489" cy="32.832" r="0.1"/>
	<circle cx="55.794" cy="32.881" r="0.1"/>
	<circle cx="55.748" cy="33.191" r="0.099"/>
	<circle cx="55.437" cy="33.143" r="0.099"/>
</g>
<g>
	<circle style="fill:#FFFFFF;stroke:#000000;stroke-width:0.624;stroke-miterlimit:10;" cx="57.771" cy="27.716" r="0.685"/>
	<circle cx="57.592" cy="27.606" r="0.1"/>
	<circle cx="57.892" cy="27.533" r="0.1"/>
	<circle cx="57.97" cy="27.837" r="0.099"/>
	<circle cx="57.664" cy="27.912" r="0.099"/>
</g>
<g>
	<circle style="fill:#FFFFFF;stroke:#000000;stroke-width:0.624;stroke-miterlimit:10;" cx="69.437" cy="28.273" r="0.685"/>
	<circle cx="69.41" cy="28.065" r="0.1"/>
	<circle cx="69.656" cy="28.251" r="0.1"/>
	<circle cx="69.469" cy="28.504" r="0.099"/>
	<circle cx="69.218" cy="28.315" r="0.099"/>
</g>
<g>
</g>
<g>
</g>
<g>
</g>
<g>
</g>
<g>
</g>
<g>
</g>
<g>
</g>
<g>
</g>
<g>
</g>
<g>
</g>
<g>
</g>
<g>
</g>
<g>
</g>
<g>
</g>
<g>
</g>
</svg>
