<?xml version="1.0" encoding="iso-8859-1"?>
<!-- Generator: Adobe Illustrator 19.1.1, SVG Export Plug-In . SVG Version: 6.00 Build 0)  -->
<svg version="1.1" id="Lager_1" xmlns="http://www.w3.org/2000/svg" xmlns:xlink="http://www.w3.org/1999/xlink" x="0px" y="0px"
	 viewBox="0 0 80 80" style="enable-background:new 0 0 80 80;" xml:space="preserve">
<rect style="fill:none;" width="80" height="80"/>
<path style="fill:#FFFFFF;" d="M4.797,72.305h68.789V49.987L60.3,28.37l-1.284-1.855L58.34,22.2l-4.355-8.396
	c0,0-11.103,3.082-14.178,5.347s-12.113,9.216-13.578,10.109s-8.616,5.143-9.119,5.481c-0.579,0.389-1.19,7.328-1.572,7.903
	s-4.22,3.104-4.834,3.517C10.089,46.576,4.797,72.305,4.797,72.305z"/>
<path style="opacity:0.3;" d="M4.797,72.305h68.789V49.987L60.3,28.37l-1.284-1.855L58.34,22.2l-4.355-8.396
	c0,0-11.103,3.082-14.178,5.347s-12.113,9.216-13.578,10.109s-8.616,5.143-9.119,5.481c-0.579,0.389-1.19,7.328-1.572,7.903
	s-4.22,3.104-4.834,3.517C10.089,46.576,4.797,72.305,4.797,72.305z"/>
<path style="fill:#FFFFFF;" d="M7.172,72.305h17.5h47.875h4.039V47.987L63.3,26.37l-1.284-1.855L61.34,20.2l-4.355-8.396
	c0,0-11.103,3.082-14.178,5.347s-12.113,9.216-13.578,10.109s-8.616,5.143-9.119,5.481c-0.579,0.389-1.19,7.328-1.572,7.903
	s-4.22,3.104-4.834,3.517C13.089,44.576,7.172,72.305,7.172,72.305z"/>
<path style="fill:none;stroke:#000000;stroke-width:0.85;stroke-miterlimit:10;" d="M76.585,47.987
	c-1.688-3.25-12.005-19.996-14.289-22.869c-0.638-0.803-0.545-3.472-1.063-5.375c-0.244-0.897-3.813-7.813-4.25-7.938
	S44.859,15.43,42.422,17.43s-11.312,8.75-13.375,10s-8.625,5.187-8.938,5.312s-1.063,6.875-1.375,7.813s-4.875,3.313-5.188,3.75
	s-6.002,26.138-6.375,28"/>
<path style="fill:none;stroke:#000000;stroke-width:0.85;stroke-miterlimit:10;" d="M17.896,41.428c1.438,0,2.838-0.748,4.088-0.748
	s5.125,0.688,5.938,0.813s1.625,0.497,2.375,0.561c0.75,0.064,1.812,3.627,2,3.627s10.813-7,13-8.25s12.563-3,16.063-4.563
	c3.5-1.562,3.619-1.507,4.622-2.222"/>
<path style="opacity:0.5;fill:none;stroke:#000000;stroke-width:0.85;stroke-miterlimit:10;" d="M61.813,24.176
	c-3.375,0.625-12.235,4.879-15.391,6.469c-3.187,1.605-15.093,9.879-16.031,11.442"/>
<path style="fill:none;stroke:#000000;stroke-width:0.85;stroke-miterlimit:10;" d="M11.505,72.305
	c1.083-3.771,8.664-19.369,11.5-22.771c3.604-4.323,5.602-5.899,7.292-7.481"/>
<path style="fill:none;stroke:#000000;stroke-width:0.85;stroke-miterlimit:10;" d="M49.672,59.992c0.063-4.188-1.5-11.625-2-13.625
	s-1.14-8.063-1.57-9"/>
<path style="fill:none;stroke:#000000;stroke-width:0.85;stroke-miterlimit:10;" d="M24.672,72.305
	c2.875-3.375,8.721-8.755,13.596-10.318c5.024-1.61,8.72-1.682,11.405-1.682s11.652,1.35,15.311,4.063
	c3.625,2.688,6.5,6.375,7.563,7.938"/>
<path style="opacity:0.3;" d="M18.437,40.964c0.471-1.221,1.334-8.038,1.672-8.222c0.338-0.184,9.585-5.719,10.282-6.212
	c0.696-0.494,11.54-8.861,12.415-9.378s3.66-1.807,4.046-1.963c0.386-0.156,9.007-3.391,9.569-3.388s1.282,0.983,1.667,1.673
	s2.838,4.636,3.146,6.268s0.095,3.493,0.579,4.434c0.484,0.941,4.561,6.265,4.217,6.469s-5.322,2.486-5.322,2.486
	s-11.78,3.066-12.819,3.375s-2.677,0.403-2.966,0.861c-0.289,0.459-12.625,8.313-12.625,8.313s-1.289-3.05-1.597-3.321
	c-0.308-0.271-8.715-1.679-8.715-1.679L18.437,40.964z"/>
<g>
</g>
<g>
</g>
<g>
</g>
<g>
</g>
<g>
</g>
<g>
</g>
<g>
</g>
<g>
</g>
<g>
</g>
<g>
</g>
<g>
</g>
<g>
</g>
<g>
</g>
<g>
</g>
<g>
</g>
</svg>
