<?xml version="1.0" encoding="iso-8859-1"?>
<!-- Generator: Adobe Illustrator 16.0.4, SVG Export Plug-In . SVG Version: 6.00 Build 0)  -->
<!DOCTYPE svg PUBLIC "-//W3C//DTD SVG 1.1//EN" "http://www.w3.org/Graphics/SVG/1.1/DTD/svg11.dtd">
<svg version="1.1" id="Layer_1" xmlns="http://www.w3.org/2000/svg" xmlns:xlink="http://www.w3.org/1999/xlink" x="0px" y="0px"
	 width="80.04px" height="80.04px" viewBox="0 0 80.04 80.04" style="enable-background:new 0 0 80.04 80.04;" xml:space="preserve"
	>
<g>
	<path style="opacity:0.35;" d="M77.913,60.292c-4.967,5.312-10.188,9.457-14.9,12.637c-1.445,0.975-3.713-1.457-4.299-1.094
		c-3.938,2.453-9.945,5.811-12.076,6.832c-2.348,1.125-5.818-1.23-5.818-1.23L2.186,49.842V4.545h75.727V60.292z"/>
	<path style="fill:#FFFFFF;" d="M77.913,56.946c-4.967,5.312-10.188,9.457-14.9,12.637c-1.445,0.975-3.713-1.457-4.299-1.094
		c-3.938,2.453-9.945,5.812-12.076,6.832c-2.348,1.125-5.818-1.23-5.818-1.23L2.186,46.497V1.199h75.727V56.946z"/>
	<path style="fill:none;stroke:#000000;stroke-width:0.624;stroke-miterlimit:10;" d="M77.665,57.208
		c-4.893,5.188-10.018,9.25-14.652,12.375c-1.445,0.975-3.684-1.457-4.115-1.189c-3.943,2.447-10.129,5.908-12.26,6.928
		c-2.348,1.125-5.818-1.23-5.818-1.23L2.186,46.497"/>
	<path style="fill:none;stroke:#000000;stroke-width:0.624;stroke-miterlimit:10;" d="M2.186,1.199"/>
	<path style="fill:none;stroke:#000000;stroke-width:0.624;stroke-miterlimit:10;" d="M2.186,46.497"/>
	<polygon style="opacity:0.35;" points="2.429,28.798 2.429,30.773 55.391,70.454 58.897,68.393 	"/>
	
		<line style="fill:#FFFFFF;stroke:#000000;stroke-width:0.624;stroke-miterlimit:10;" x1="58.907" y1="68.325" x2="2.429" y2="28.798"/>
	<rect style="fill:none;" width="80.04" height="80.04"/>
	<path style="fill:none;stroke:#000000;stroke-width:0.624;stroke-miterlimit:10;" d="M60.905,36.552
		c0.381,0.346,0.502,0.832,0.271,1.084l-7.512,8.261c-0.23,0.252-0.725,0.178-1.105-0.17l0,0c-0.381-0.344-0.502-0.83-0.271-1.082
		l7.514-8.263C60.03,36.131,60.526,36.204,60.905,36.552L60.905,36.552z"/>
	
		<line style="fill:none;stroke:#000000;stroke-width:0.624;stroke-miterlimit:10;" x1="55.489" y1="42.538" x2="59.999" y2="37.582"/>
	<path style="fill:#4D4D4D;stroke:#000000;stroke-width:0.624;stroke-miterlimit:10;" d="M57.397,45.946
		c0,2.797-2.268,5.064-5.064,5.064l0,0c-2.799,0-5.066-2.268-5.066-5.064c0,0,0.252-4.789,3.537-4.789l1.529-0.276
		C55.129,40.881,57.397,43.149,57.397,45.946L57.397,45.946z"/>
	<path style="fill:#808080;stroke:#000000;stroke-width:0.624;stroke-miterlimit:10;" d="M57.719,45.311
		c0,2.797-2.268,5.064-5.064,5.064l0,0c-2.799,0-5.064-2.268-5.064-5.064l0,0c0-2.797,2.266-5.066,5.064-5.066l0,0
		C55.452,40.245,57.719,42.514,57.719,45.311L57.719,45.311z"/>
	<g>
		<path style="fill:#4D4D4D;stroke:#000000;stroke-width:0.624;stroke-miterlimit:10;" d="M51.309,45.209
			c0.209,0.18,0.23,0.494,0.051,0.703l0,0c-0.182,0.207-0.496,0.23-0.705,0.049l0,0c-0.207-0.18-0.229-0.494-0.049-0.703l0,0
			C50.788,45.051,51.102,45.028,51.309,45.209L51.309,45.209z"/>
		<path style="fill:#4D4D4D;stroke:#000000;stroke-width:0.624;stroke-miterlimit:10;" d="M52.889,43.489
			c0.207,0.182,0.23,0.496,0.049,0.705l0,0c-0.18,0.207-0.496,0.23-0.703,0.049l0,0c-0.207-0.18-0.229-0.496-0.049-0.703l0,0
			C52.366,43.333,52.68,43.309,52.889,43.489L52.889,43.489z"/>
		<path style="fill:#4D4D4D;stroke:#000000;stroke-width:0.624;stroke-miterlimit:10;" d="M52.981,46.661
			c0.207,0.18,0.23,0.496,0.049,0.703l0,0c-0.18,0.207-0.494,0.23-0.703,0.049l0,0c-0.207-0.18-0.229-0.494-0.049-0.703l0,0
			C52.458,46.502,52.772,46.481,52.981,46.661L52.981,46.661z"/>
		<path style="fill:#4D4D4D;stroke:#000000;stroke-width:0.624;stroke-miterlimit:10;" d="M54.51,44.899
			c0.209,0.18,0.23,0.494,0.049,0.703l0,0c-0.18,0.209-0.494,0.23-0.703,0.049l0,0c-0.207-0.18-0.229-0.494-0.049-0.703l0,0
			C53.989,44.741,54.303,44.717,54.51,44.899L54.51,44.899z"/>
	</g>
	<path style="fill:none;stroke:#000000;stroke-width:0.624;stroke-miterlimit:10;" d="M51.209,29.652
		c0.381,0.345,0.502,0.831,0.271,1.084l-7.512,8.261c-0.23,0.253-0.725,0.179-1.105-0.168l0,0c-0.381-0.346-0.502-0.832-0.271-1.084
		l7.512-8.262C50.334,29.231,50.831,29.306,51.209,29.652L51.209,29.652z"/>
	
		<line style="fill:none;stroke:#000000;stroke-width:0.624;stroke-miterlimit:10;" x1="45.793" y1="35.64" x2="50.301" y2="30.683"/>
	<path style="fill:#4D4D4D;stroke:#000000;stroke-width:0.624;stroke-miterlimit:10;" d="M47.7,39.046
		c0,2.798-2.268,5.066-5.064,5.066l0,0c-2.796,0-5.065-2.268-5.065-5.066c0,0,0.253-4.789,3.538-4.789l1.527-0.275
		C45.432,33.981,47.7,36.249,47.7,39.046L47.7,39.046z"/>
	<path style="fill:#808080;stroke:#000000;stroke-width:0.624;stroke-miterlimit:10;" d="M48.024,38.411
		c0,2.798-2.268,5.066-5.064,5.066l0,0c-2.798,0-5.066-2.268-5.066-5.066l0,0c0-2.797,2.268-5.064,5.066-5.064l0,0
		C45.756,33.347,48.024,35.614,48.024,38.411L48.024,38.411z"/>
	<g>
		<path style="fill:#4D4D4D;stroke:#000000;stroke-width:0.624;stroke-miterlimit:10;" d="M41.614,38.31
			c0.209,0.181,0.23,0.496,0.049,0.704l0,0c-0.18,0.207-0.494,0.229-0.703,0.049l0,0c-0.208-0.18-0.229-0.495-0.049-0.703l0,0
			C41.09,38.151,41.407,38.13,41.614,38.31L41.614,38.31z"/>
		<path style="fill:#4D4D4D;stroke:#000000;stroke-width:0.624;stroke-miterlimit:10;" d="M43.192,36.59
			c0.209,0.181,0.232,0.496,0.051,0.704l0,0c-0.18,0.208-0.496,0.23-0.703,0.049l0,0c-0.209-0.18-0.23-0.495-0.051-0.702l0,0
			C42.67,36.433,42.985,36.41,43.192,36.59L43.192,36.59z"/>
		<path style="fill:#4D4D4D;stroke:#000000;stroke-width:0.624;stroke-miterlimit:10;" d="M43.286,39.761
			c0.207,0.181,0.23,0.496,0.049,0.704l0,0c-0.18,0.208-0.494,0.229-0.703,0.049l0,0c-0.207-0.181-0.23-0.495-0.051-0.703l0,0
			C42.762,39.603,43.079,39.581,43.286,39.761L43.286,39.761z"/>
		<path style="fill:#4D4D4D;stroke:#000000;stroke-width:0.624;stroke-miterlimit:10;" d="M44.815,37.999
			c0.209,0.18,0.23,0.495,0.051,0.703l0,0c-0.18,0.209-0.496,0.23-0.703,0.049l0,0c-0.209-0.18-0.23-0.494-0.051-0.703l0,0
			C44.293,37.841,44.608,37.818,44.815,37.999L44.815,37.999z"/>
	</g>
	<path style="fill:none;stroke:#000000;stroke-width:0.624;stroke-miterlimit:10;" d="M41.399,22.237
		c0.379,0.346,0.5,0.832,0.27,1.085l-7.511,8.261c-0.23,0.252-0.726,0.178-1.105-0.169l0,0c-0.381-0.345-0.502-0.831-0.271-1.084
		l7.513-8.262C40.522,21.817,41.018,21.892,41.399,22.237L41.399,22.237z"/>
	
		<line style="fill:none;stroke:#000000;stroke-width:0.624;stroke-miterlimit:10;" x1="35.981" y1="28.225" x2="40.489" y2="23.269"/>
	<path style="fill:#4D4D4D;stroke:#000000;stroke-width:0.624;stroke-miterlimit:10;" d="M37.889,31.632
		c0,2.797-2.269,5.065-5.065,5.065l0,0c-2.798,0-5.064-2.269-5.064-5.065c0,0,0.252-4.789,3.536-4.789l1.528-0.276
		C35.62,26.566,37.889,28.835,37.889,31.632L37.889,31.632z"/>
	<path style="fill:#808080;stroke:#000000;stroke-width:0.624;stroke-miterlimit:10;" d="M38.212,30.997
		c0,2.797-2.268,5.065-5.065,5.065l0,0c-2.798,0-5.065-2.269-5.065-5.065l0,0c0-2.797,2.268-5.064,5.065-5.064l0,0
		C35.944,25.933,38.212,28.2,38.212,30.997L38.212,30.997z"/>
	<g>
		<path style="fill:#4D4D4D;stroke:#000000;stroke-width:0.624;stroke-miterlimit:10;" d="M31.802,30.896
			c0.207,0.18,0.23,0.496,0.049,0.704l0,0c-0.18,0.207-0.495,0.229-0.703,0.049l0,0c-0.207-0.18-0.229-0.495-0.049-0.703l0,0
			C31.278,30.737,31.594,30.715,31.802,30.896L31.802,30.896z"/>
		<path style="fill:#4D4D4D;stroke:#000000;stroke-width:0.624;stroke-miterlimit:10;" d="M33.38,29.176
			c0.209,0.181,0.23,0.495,0.051,0.704l0,0c-0.181,0.208-0.496,0.23-0.704,0.049l0,0c-0.208-0.18-0.229-0.495-0.049-0.703l0,0
			C32.858,29.019,33.173,28.996,33.38,29.176L33.38,29.176z"/>
		<path style="fill:#4D4D4D;stroke:#000000;stroke-width:0.624;stroke-miterlimit:10;" d="M33.474,32.347
			c0.208,0.181,0.229,0.496,0.05,0.703l0,0c-0.181,0.208-0.496,0.23-0.704,0.05l0,0c-0.207-0.181-0.229-0.495-0.05-0.704l0,0
			C32.95,32.188,33.265,32.167,33.474,32.347L33.474,32.347z"/>
		<path style="fill:#4D4D4D;stroke:#000000;stroke-width:0.624;stroke-miterlimit:10;" d="M35.003,30.584
			c0.209,0.181,0.23,0.495,0.05,0.704l0,0c-0.18,0.208-0.495,0.23-0.704,0.049l0,0c-0.207-0.18-0.229-0.494-0.049-0.703l0,0
			C34.48,30.427,34.795,30.403,35.003,30.584L35.003,30.584z"/>
	</g>
	<path style="fill:none;stroke:#000000;stroke-width:0.624;stroke-miterlimit:10;" d="M31.702,15.339
		c0.381,0.345,0.502,0.831,0.271,1.084l-7.513,8.261c-0.229,0.252-0.724,0.179-1.105-0.169l0,0c-0.38-0.346-0.501-0.831-0.271-1.084
		l7.512-8.262C30.827,14.917,31.322,14.991,31.702,15.339L31.702,15.339z"/>
	
		<line style="fill:none;stroke:#000000;stroke-width:0.624;stroke-miterlimit:10;" x1="26.286" y1="21.325" x2="30.794" y2="16.368"/>
	<path style="fill:#4D4D4D;stroke:#000000;stroke-width:0.624;stroke-miterlimit:10;" d="M28.193,24.732
		c0,2.798-2.269,5.065-5.065,5.065l0,0c-2.798,0-5.065-2.268-5.065-5.065c0,0,0.253-4.789,3.537-4.789l1.528-0.276
		C25.925,19.667,28.193,21.935,28.193,24.732L28.193,24.732z"/>
	<path style="fill:#808080;stroke:#000000;stroke-width:0.624;stroke-miterlimit:10;" d="M28.517,24.098
		c0,2.798-2.269,5.065-5.066,5.065l0,0c-2.797,0-5.064-2.268-5.064-5.065l0,0c0-2.798,2.268-5.065,5.064-5.065l0,0
		C26.248,19.032,28.517,21.3,28.517,24.098L28.517,24.098z"/>
	<g>
		<path style="fill:#4D4D4D;stroke:#000000;stroke-width:0.624;stroke-miterlimit:10;" d="M22.105,23.996
			c0.208,0.181,0.23,0.495,0.05,0.704l0,0c-0.18,0.207-0.494,0.229-0.703,0.049l0,0c-0.208-0.18-0.23-0.495-0.049-0.703l0,0
			C21.583,23.837,21.898,23.815,22.105,23.996L22.105,23.996z"/>
		<path style="fill:#4D4D4D;stroke:#000000;stroke-width:0.624;stroke-miterlimit:10;" d="M23.685,22.276
			c0.209,0.18,0.23,0.496,0.051,0.703l0,0c-0.182,0.209-0.496,0.23-0.704,0.05l0,0c-0.208-0.181-0.229-0.495-0.05-0.703l0,0
			C23.162,22.118,23.478,22.097,23.685,22.276L23.685,22.276z"/>
		<path style="fill:#4D4D4D;stroke:#000000;stroke-width:0.624;stroke-miterlimit:10;" d="M23.778,25.446
			c0.207,0.182,0.229,0.496,0.049,0.704l0,0c-0.181,0.208-0.496,0.23-0.703,0.05l0,0c-0.208-0.181-0.23-0.496-0.05-0.703l0,0
			C23.255,25.289,23.57,25.267,23.778,25.446L23.778,25.446z"/>
		<path style="fill:#4D4D4D;stroke:#000000;stroke-width:0.624;stroke-miterlimit:10;" d="M25.308,23.685
			c0.208,0.181,0.23,0.496,0.051,0.703l0,0c-0.182,0.209-0.497,0.231-0.705,0.05l0,0c-0.207-0.18-0.229-0.495-0.05-0.703l0,0
			C24.784,23.527,25.101,23.505,25.308,23.685L25.308,23.685z"/>
	</g>
</g>
<g>
</g>
<g>
</g>
<g>
</g>
<g>
</g>
<g>
</g>
<g>
</g>
<g>
</g>
<g>
</g>
<g>
</g>
<g>
</g>
<g>
</g>
<g>
</g>
<g>
</g>
<g>
</g>
<g>
</g>
</svg>
